<svg width="320" height="188" viewBox="0 0 320 188" fill="none" xmlns="http://www.w3.org/2000/svg">
<path d="M66.9776 50.6196H74.1752L74.6114 50.8377L75.2657 55.4179H79.4098L80.9365 57.599L81.1546 58.0352L82.0271 57.8171L83.5538 56.2904L84.6444 54.5455L86.8254 55.1998L89.4427 56.0723L95.3316 56.2904L96.2041 57.3809L98.8214 62.8336L100.566 65.4509L103.402 68.9406L105.146 72.4303L106.019 75.2657H108.418L111.69 74.8295L114.961 75.0476L115.179 75.2657L114.961 78.7555L114.089 83.772L112.562 85.5168L110.817 87.2617L109.072 88.7884L108.2 89.879H107.764L107.328 90.7514L104.492 93.3687L103.838 94.4592L104.056 96.6403L104.928 101.221L105.146 102.965V106.455L103.838 108.2L101.657 109.945L100.784 111.035L100.348 111.908L99.9119 113.871L99.0395 115.616L96.8584 119.76L95.5497 121.723L94.023 123.468L92.2781 124.994L90.0971 126.739L88.3522 127.394H84.6444L82.8995 126.303L81.5908 124.34L81.1546 119.324L80.0641 116.052L77.0106 110.163L76.5744 108.636L76.7925 105.801L77.6649 101.221L77.883 100.13V98.1671L76.7925 95.986L74.6114 92.9325L73.739 92.06V84.6444L73.5209 83.772L71.1217 83.1176L68.5044 81.809L66.1052 82.2452L61.3068 83.772L58.0352 84.2082H56.5085L54.7636 83.5538L51.0558 80.9366L48.8747 79.4098L47.566 77.2287L47.3479 76.3563V72.2122L48.2204 64.3604L48.6566 62.3974L49.529 61.3068L52.5825 58.9077L54.5455 57.1628L55.4179 56.2904L56.5085 54.5455L59.3439 53.2369L64.3603 51.2739L66.9776 50.6196ZM87.0435 59.562L86.8254 63.2698H97.9489L97.5127 61.9612L96.4222 59.7801L96.2041 59.562H87.0435ZM71.3398 81.1547L71.5579 81.809L73.0846 82.4633V82.0271L71.776 81.1547H71.3398Z" fill="#2F443B"/>
<path d="M72.6484 23.3561H78.5373L84.4263 24.0104L89.8789 25.1009L94.2411 26.4096L97.7308 27.7182L101.221 29.4631L104.274 31.208L107.982 33.8253L109.945 35.352L112.562 37.7512L113.653 38.6236L115.179 40.3685L116.706 41.8952L119.76 46.0393L121.941 49.529L124.34 53.8912L126.521 59.3439L127.83 63.2698L129.138 69.1587L129.575 71.3398L129.793 73.739V87.4798L129.138 95.3316L128.266 102.093L126.521 111.472L124.558 119.324L122.595 125.649L121.068 130.011L118.887 135.245L116.924 139.608L115.179 142.879L114.307 144.624L112.998 146.151L112.126 146.587H110.163L108.636 145.496L107.982 144.188L108.2 142.225L110.817 137.426L113.216 132.41L115.834 125.867L118.233 118.669L120.196 111.254L121.723 102.965L122.595 97.0765L123.249 89.6608L123.686 83.1176V75.9201L123.031 70.6855L121.941 66.1052L120.632 61.7431L118.669 57.1628L116.052 52.1463L113.653 48.6566L111.908 46.4755L109.291 43.422L107.764 41.8952L105.365 39.9323L102.747 37.9693L98.167 35.1339L93.1506 32.7347L89.2246 31.4261L84.6444 30.3355L80.2822 29.6812L77.6649 29.4631H72.8665L67.8501 30.1174L63.0517 31.208L58.4714 32.7347L51.7101 36.0063L48.4385 38.1874L45.6031 40.3685L42.7677 42.9858L41.6771 44.0763L39.496 46.4755L36.6606 50.6196L34.9158 53.455L33.1709 57.1628L31.4261 61.9612L30.3355 66.5414L29.6812 71.9941L29.4631 75.9201V82.4633L28.8088 83.99L27.7182 84.8625L27.0639 85.0806H25.5371L23.7923 83.99L23.3561 83.1176V70.9036L24.2285 64.7966L25.7553 58.6895L27.5001 54.1093L29.8993 49.3109L32.9528 44.5125L35.7882 41.0228L41.0228 35.7882L44.0763 33.389L47.3479 31.208L49.7471 29.8993L53.0187 28.1545L58.6895 25.9734L64.5784 24.4466L70.4674 23.5742L72.6484 23.3561Z" fill="#09A892"/>
<path d="M87.2616 73.9571L88.1341 74.1752L89.0065 75.0476L89.8789 73.9571H99.4757L100.784 74.3933L101.439 75.2657L101.657 75.9201L102.093 76.1382V75.702L104.274 75.9201L105.583 76.5744L107.764 76.7925L110.163 76.3563L110.817 76.5744L110.599 77.883L110.163 79.6279L109.945 80.2822L113.435 81.3728L114.307 81.809L114.089 83.7719L112.562 85.5168L110.817 87.2617L109.072 88.7884L108.2 89.879H107.764L107.328 90.7514L104.492 93.3687L103.838 94.4592L104.056 96.6403L104.928 101.221L105.146 102.965V106.455L103.838 108.2L101.657 109.945L100.784 111.035L100.348 111.908L99.9119 113.871L99.0395 115.616L96.8584 119.76L95.5497 121.723L94.023 123.468L92.2781 124.994L90.097 126.739L88.3522 127.394H84.6444L82.8995 126.303L81.5908 124.34L81.1546 119.324L80.0641 116.052L77.0106 110.163L76.5744 108.636L76.7925 105.801L77.4468 102.965L79.846 103.62L81.3727 104.274L82.8995 104.492L85.953 102.965L87.4798 101.221L89.2246 99.2576L90.5333 97.0765V95.7679L88.1341 95.5498H85.0806L82.2452 95.7679L82.0271 95.3317L78.1011 95.1135L76.3563 93.8049L75.92 92.06L75.0476 91.1876H75.7019L76.1382 90.7514L78.1011 90.9695L79.1917 91.6238L80.0641 91.4057L80.5003 90.7514V89.4427H80.0641V88.5703H76.1382L74.6114 88.1341L74.8295 87.4798H75.2657L75.4838 86.6073L77.0106 85.7349L77.4468 85.5168V83.1176L78.5373 78.5374L79.4098 77.2287L80.5003 76.1382L81.5908 77.0106L82.6814 78.7555L84.6444 80.7184L85.0806 82.6814L86.1711 82.0271L86.6073 80.7184V75.9201L87.0435 74.1752L87.2616 73.9571Z" fill="#2E443B"/>
<path d="M71.9941 36.8787H78.3192L83.3357 37.533L87.916 38.6236L92.06 40.1503L95.5497 41.8952L99.0395 44.0763L102.747 46.9117L104.928 48.8747L106.891 51.0557L109.509 54.5455L111.254 57.3809L112.998 60.8706L114.089 63.706L115.398 67.85V69.3768L114.743 70.4673L112.78 71.3398L111.254 71.1216L110.163 70.2492L109.291 67.85L108.418 65.0146L106.891 61.5249L104.928 58.2533L102.965 55.636L100.566 53.0187L97.7308 50.4014L93.3687 47.566L89.8789 45.8211L86.3892 44.5125L82.0271 43.422L76.5744 42.7676H73.739L67.8501 43.6401L63.4879 44.9487L59.9982 46.4755L57.3809 47.7841L54.3274 49.9652L52.1463 51.9282L50.4014 53.4549L47.7841 56.5084L45.8212 59.78L44.0763 63.4879L42.7677 68.0681L42.3314 71.3398L41.8952 80.7184L41.2409 84.4262L39.496 88.1341L37.9693 90.3151L36.8787 91.6238L34.4796 93.5868L31.4261 95.3316L28.5907 96.204H25.1009L24.0104 95.3316L23.3561 93.1505L23.7923 91.8419L25.319 90.5332L28.1544 90.097L31.8623 87.9159L33.8252 85.5168L35.1339 82.6814L35.5701 80.5003L35.7882 73.5208L36.4425 67.6319L37.5331 63.0517L38.8417 59.5619L41.0228 55.4179L43.2039 52.1463L45.1668 49.529L46.9117 48.0022L48.8747 46.0393L52.5825 43.422L57.1628 40.8047L62.6155 38.6236L66.9776 37.533L71.9941 36.8787Z" fill="#09A892"/>
<path d="M87.2616 73.9571L88.1341 74.1752L89.0065 75.0476L89.8789 73.9571H99.4757L100.784 74.3933L101.439 75.2657L101.657 75.9201L102.093 76.1382V75.702L104.274 75.9201L105.583 76.5744L107.764 76.7925L110.163 76.3563L110.817 76.5744L110.599 77.883L110.163 79.6279L109.945 80.2822L113.435 81.3728L114.307 81.809L114.089 83.7719L112.562 85.5168L111.472 86.3892H110.817L109.727 87.0436L107.982 86.1711V85.0806L109.291 83.5538L108.418 83.1176L107.764 81.5909H107.109V82.6814L106.455 83.3357H104.71L102.747 83.1176L101.002 83.3357L100.784 82.4633L103.62 81.3728L103.838 80.9365L102.747 80.7184L101.875 80.2822L101.439 78.9736V78.1011L100.13 78.5374L93.8049 78.7555L92.06 78.9736L89.8789 78.5374L89.2246 77.6649V77.2287H88.7884L88.5703 80.0641V81.5909V81.809H88.7884V82.8995L89.4427 82.6814L90.3152 83.5538L92.2781 84.2082L93.8049 84.6444L94.2411 83.1176L94.8954 82.6814H97.7308L98.3851 83.3357L98.167 84.4263L97.5127 85.0806L94.6773 85.953H94.2411L94.4592 87.0436L96.8584 86.1711L99.0395 85.5168H101.002L102.747 86.6073L103.184 88.3522L102.747 90.5333L102.311 91.6238L101.875 96.4222L100.784 97.5127L102.311 98.8214L102.965 99.4757L104.056 100.13L104.274 101.439L103.402 101.875H100.566L99.6938 101.439L99.0395 100.566L98.167 100.348L97.5127 99.9119L97.2946 101.221L96.6403 102.747H96.2041L96.4222 104.274L95.986 107.546L94.8954 108.2L93.1506 107.982L92.2781 107.546L92.7143 106.673L92.06 107.109H90.5333L89.6608 105.801H89.0065L86.8254 103.184L87.0435 102.093L89.4427 99.6938L91.1876 97.5127L91.8419 96.6403L93.1506 96.4222L93.5868 94.8954L92.06 95.3317L78.1011 95.1135L76.3563 93.8049L75.92 92.06L75.0476 91.1876H75.7019L76.1382 90.7514L78.1011 90.9695L79.1917 91.6238L80.0641 91.4057L80.5003 90.7514V89.4427H80.0641V88.5703H76.1382L74.6114 88.1341L74.8295 87.4798H75.2657L75.4838 86.6073L77.0106 85.7349L77.4468 85.5168V83.1176L78.5373 78.5374L79.4098 77.2287L80.5003 76.1382L81.5908 77.0106L82.6814 78.7555L84.6444 80.7184L85.0806 82.6814L86.1711 82.0271L86.6073 80.7184V75.9201L87.0435 74.1752L87.2616 73.9571Z" fill="#137E4E"/>
<path d="M112.126 93.5868H113.653L115.398 94.4592L116.052 95.3317L116.27 97.2946L114.961 105.801L113.435 112.998L111.035 121.286L109.291 126.521L107.328 131.101L104.928 136.336L103.184 139.608L101.002 143.315L97.9489 147.896L96.4222 149.859L94.4592 152.258L92.06 155.093L90.0971 157.056L89.6608 157.71H89.2246V158.147L86.6073 160.764L84.8625 162.291L83.3357 163.599L81.809 163.818L79.846 163.163L79.1917 162.509L78.9736 162.073V160.328L79.846 159.019L82.4633 156.402L84.2081 154.875L87.0435 152.04L88.5703 150.295L90.3152 148.114L92.4962 145.278L94.6773 142.007L97.0765 138.081L99.0395 134.591L101.657 129.138L104.056 123.249L106.455 116.052L108.2 109.291L109.945 99.4757L110.381 95.5498L111.035 94.2411L112.126 93.5868Z" fill="#09A892"/>
<path d="M66.9776 50.6196H71.3398L72.8665 50.8377L73.5209 53.8912L73.3028 63.0517L73.0846 63.9241L73.5209 64.7966L75.2657 65.2328L77.883 66.7595L79.846 68.0682L80.9365 68.5044L80.7184 70.0312L79.6279 73.0847L78.9736 75.9201L78.3192 76.3563L73.739 74.3933V73.0847L73.9571 72.6485H73.5209L73.3028 73.3028L73.0846 71.9941L71.1217 71.5579L72.6484 72.2122L72.8665 72.4303V73.739L72.2122 74.3933L69.5949 75.2657H68.5044V70.2493L68.2863 75.0476H68.0682L67.8501 69.8131L66.5414 69.5949L63.9241 68.5044L61.9611 67.8501L61.5249 67.632L61.3068 74.6114L61.0887 75.0476H55.1998V62.8336L55.636 61.9612L55.4179 60.8706L55.1998 56.7266L56.2903 54.7636L57.3809 54.1093L63.706 51.492L66.9776 50.6196Z" fill="#95222D"/>
<path d="M71.3398 50.6196H74.1752L74.6114 50.8377L75.2657 55.4179H79.4098L80.9365 57.599L81.1546 58.0352L82.0271 57.8171L83.5538 56.2904L84.6444 54.5455L86.8254 55.1998L89.4427 56.0723L95.3316 56.2904L96.2041 57.3809L98.8214 62.8336L100.566 65.4509L103.402 68.9406L104.928 71.776V73.3028L104.492 73.739L101.657 73.9571L99.9119 73.5209H88.7884L87.6979 72.4303L86.6073 70.2493L85.5168 70.0312V77.2287L85.0806 79.846L83.99 79.6279L83.5538 78.7555V69.8131L81.5908 69.5949L81.1546 69.1587V68.5044L78.9736 67.8501L78.1011 67.1958L76.1382 65.8871L73.9571 65.0147L72.8665 65.2328V61.7431H73.0846L73.3028 53.455L72.8665 50.8377H71.3398V50.6196ZM87.0435 59.562L86.8254 63.2698H97.9489L97.5127 61.9612L96.4222 59.7801L96.2041 59.562H87.0435Z" fill="#2C3533"/>
<path d="M61.0887 89.0065H62.6155L64.3603 90.0971L64.7965 91.1876V93.1506L62.6155 98.1671L60.8706 101.221L58.6895 104.492L55.8541 107.982L53.2368 110.599L50.1833 112.998L47.566 114.743L43.422 116.924L39.496 118.669L35.7882 119.76L30.3355 120.85L28.3725 120.632L27.0639 119.105L26.8458 118.669V116.924L27.7182 115.398L28.8088 114.961L34.6977 113.653L39.0598 112.126L42.7677 110.381L45.385 108.636L47.566 106.891L49.7471 104.928L52.5825 102.093L54.9817 98.8214L57.3809 94.6773L59.3439 90.0971L60.4344 89.2246L61.0887 89.0065Z" fill="#09A892"/>
<path d="M66.3233 104.492H68.5044L69.5949 105.147L70.2492 106.455V107.982L69.1587 110.163L66.1052 114.307L63.9241 116.706L62.3974 118.451L60.8706 119.978L57.8171 122.377L54.9817 124.558L51.9282 126.521L48.2204 128.484L42.7677 130.665L37.5331 132.192L34.6977 132.846L33.1709 132.628L32.0804 131.974L31.4261 130.883L31.2079 129.138L31.8623 127.83L32.9528 126.957L39.496 125.212L44.0763 123.468L47.566 121.723L50.6195 119.978L53.673 117.797L56.0722 115.834L59.562 112.562L61.9611 109.727L65.0147 105.365L66.3233 104.492Z" fill="#09A892"/>
<path d="M89.6608 130.665L91.6238 130.883L92.7143 131.756L93.3687 133.064L93.1506 134.809L91.8419 137.208L89.2246 141.134L87.2617 143.752L84.6444 146.805L79.846 151.603L77.4468 153.566L74.6114 155.747L70.6855 158.365L64.5784 161.636L62.8336 162.291L61.3068 162.073L59.562 160.546L59.1257 159.019L59.7801 157.492L60.8706 156.62L66.5414 153.566L67.632 152.694L71.1217 150.513L73.9571 148.332L77.2287 145.496L80.0641 142.661L81.5909 140.916L83.7719 138.299L85.953 135.027L87.916 131.756L89.0065 130.883L89.6608 130.665Z" fill="#09A892"/>
<path d="M71.1217 117.797L73.0846 118.015L74.6114 119.324L74.8295 119.76V121.941L72.8665 124.776L70.4674 127.612L66.9776 131.101L65.0147 132.628L62.6155 134.591L58.0352 137.645L53.0187 140.262L48.8747 142.007L44.2944 143.533L40.8047 144.406L39.7142 144.188L38.1874 143.097L37.7512 142.225V140.262L38.8417 138.735L40.5866 138.081L43.8582 137.208L48.0022 135.682L53.0187 133.282L56.9447 130.883L60.8706 128.048L64.1422 125.212L66.3233 123.031L68.2863 120.632L69.813 118.669L71.1217 117.797Z" fill="#09A892"/>
<path d="M88.7884 77.2287H89.2246L89.8789 78.3192L92.2781 78.7555L94.8954 78.5373L100.13 78.3192L101.439 78.1011L102.093 80.2822L103.838 80.9365L103.62 81.5909L101.439 82.4633H100.784L101.221 83.1176L102.747 82.8995L106.455 83.1176L106.891 82.2452L107.109 81.3727L107.982 81.5909L108.854 83.3357L109.291 83.5538L108.854 84.4263L108.2 85.0806L107.982 86.1711L109.072 86.6073L109.727 86.8254L110.817 86.1711H111.472L111.035 87.0435L109.072 88.7884L108.2 89.879H107.764L107.328 90.7514L104.492 93.3687L103.838 94.4592L104.056 96.6403L104.928 101.221L105.146 102.965V106.455L103.838 108.2L101.657 109.945L100.784 111.035L100.348 111.908L99.9119 113.871L99.0395 115.616L98.167 117.142L97.2946 117.361L94.6773 117.142L92.7143 115.834L91.1876 114.961L90.9695 114.307V111.908L91.8419 110.163L92.9325 109.291L95.3316 108.636H96.4222L96.6403 108.854H101.439L102.529 107.764L102.965 106.455V105.146L102.093 104.274L98.3851 103.838H97.0765H96.4222L96.6403 101.875L97.2946 100.784L97.5127 99.9119L99.2576 100.13L99.9119 101.439L100.566 101.657H103.402L104.056 101.439L103.838 100.13L102.747 99.4757V99.0395L101.657 98.6033L100.566 97.2946L101.657 96.4222L102.093 91.6238L102.747 89.879L102.965 88.1341L102.529 86.6073L101.002 85.7349H99.0395L95.986 86.6073L94.2411 87.2617V85.953L96.8584 85.0806H97.5127L97.7308 84.4263H98.167V82.8995H94.8954L94.2411 83.5538L93.8049 84.6444L92.2781 84.4263L90.3152 83.7719L89.4427 83.1176L88.7884 82.8995L88.5703 82.0271L88.1341 82.2452L88.3522 81.5909V78.9736L88.7884 77.2287Z" fill="#2E443B"/>
<path d="M77.2287 128.702L78.9736 128.92L80.0641 129.575L80.7184 130.229L80.9365 130.883V132.41L79.4098 134.809L76.5744 138.081L72.4303 142.225L69.3768 144.624L66.5414 146.587L62.6155 148.986L58.0352 151.385L50.8376 154.003L49.9652 154.221H48.4385L46.9117 153.566L46.0393 152.476L45.8212 150.731L46.6936 149.422L47.566 148.768L54.1093 146.369L57.8171 144.624L62.8336 141.789L65.669 139.608L68.7225 137.208L69.3768 136.99V136.554L71.1217 135.027L73.9571 131.974L75.92 129.575L77.2287 128.702Z" fill="#09A892"/>
<path d="M48.6566 85.953H51.0558L52.3644 86.8254L53.0187 88.1341L52.8006 90.0971L51.0558 93.5868L48.8747 97.0765L46.6936 99.9119L44.0763 102.311L41.0228 104.492L38.8417 105.801L34.4796 107.546L28.5907 108.636H25.9734L24.4466 107.328L24.0104 105.365L24.8828 103.62L25.7553 102.965L30.3355 102.311L34.2615 101.221L37.9693 99.2576L41.459 96.4222L43.6401 94.023L45.1668 91.6238L46.4755 89.0065L47.3479 87.0435L48.6566 85.953Z" fill="#09A892"/>
<path d="M54.9817 56.9446H55.1998L55.636 61.743L55.8541 62.8336H55.4179L55.1998 75.0476H61.0887L61.3068 67.1957L61.743 67.6319V75.0476L60.8706 75.2657V75.7019H59.9982L60.4344 76.3562L60.8706 78.1011L61.5249 76.7925H61.9611L62.6155 77.883L63.706 78.5373L64.3603 79.6279L64.5784 80.5003L64.1422 81.3727L60.8706 81.8089L60.4344 82.8995L59.9982 83.5538H56.7266L55.4179 82.4633L54.5455 82.027L52.5825 80.7184L52.3644 80.2822V76.3562L52.8006 75.7019H54.9817H55.1998L47.566 75.2657V76.3562H47.3479V72.2122L48.2204 64.3603L48.6566 62.3973L49.529 61.3068L52.5825 58.9076L54.5455 57.1627L54.9817 56.9446Z" fill="#127F4E"/>
<path d="M80.5003 76.1382L81.5908 77.0106L82.8995 78.9736L83.5538 80.0641L84.4262 81.1547V84.8625L83.99 85.5168L85.5168 85.2987L89.0065 84.4263L91.6238 84.2082L93.1506 85.2987L93.3687 85.7349V88.1341L92.7143 88.7884L92.06 88.5703V88.1341L90.7514 87.6979H87.4798L86.6073 88.5703L85.0806 88.7884L84.2081 88.3522V90.5333L85.5168 90.0971H87.2616L87.4798 89.6609L87.916 90.0971L88.3522 88.7884L89.8789 89.0065L90.3152 89.4428L90.0971 90.5333L91.1876 90.3152L92.4962 90.0971L93.1506 92.0601V94.023L92.7143 95.1136L92.06 95.3317L78.1011 95.1136L76.3563 93.8049L75.92 92.0601L75.0476 91.1876H75.7019L76.1382 90.7514L78.1011 90.9695L79.1917 91.6238L80.0641 91.4057L80.5003 90.7514V89.4428H80.0641V88.5703H76.1382L74.6114 88.1341L74.8295 87.4798H75.2657L75.4838 86.6074L77.0106 85.7349L77.4468 85.5168V83.1176L78.5373 78.5374L79.4098 77.2287L80.5003 76.1382Z" fill="#09A791"/>
<path d="M88.5703 66.5414H101.439L103.838 69.5949L104.928 71.776V73.3027L104.492 73.7389L101.657 73.957L99.9119 73.5208H88.7884L87.6979 72.4303L86.6073 70.2492L85.5168 70.0311V77.2287L85.0806 79.846L83.99 79.6279L83.5538 78.7554V69.3768L83.7719 69.1587H85.0806L85.2987 69.3768H86.3892L86.6073 66.9776L86.8254 66.7595L88.5703 66.5414Z" fill="#9A1E2C"/>
<path d="M89.8789 73.9571H99.4757L100.784 74.3933L101.439 75.2657L101.657 75.9201L102.093 76.1382V75.702L104.274 75.9201L105.583 76.5744L107.764 76.7925L110.163 76.3563L110.817 76.5744L110.599 77.883L110.163 79.6279L109.945 80.2822L113.435 81.3728L114.307 81.809L114.089 83.7719L112.562 85.5168L111.472 86.3892H110.817L109.727 87.0436L107.982 86.1711V85.0806L109.291 83.5538L108.418 83.1176L107.764 81.5909H107.109V82.6814L106.455 83.3357H104.71L102.747 83.1176L101.002 83.3357L100.784 82.4633L103.62 81.3728L103.838 80.9365L102.747 80.7184L101.875 80.2822L101.439 78.9736V78.1011L100.13 78.5374L93.8049 78.7555L92.06 78.9736L89.8789 78.5374L89.4427 77.883L89.2246 75.4838L89.8789 73.9571Z" fill="#09A791"/>
<path d="M66.5414 51.9282H72.6484L72.8665 52.1463V65.2327L71.9941 66.1052L69.3768 68.0681L68.0682 68.9406H66.3233L64.5784 68.0681V53.673L64.7965 52.3644L66.5414 51.9282Z" fill="#FDDB35"/>
<path d="M84.6444 54.5455L86.8254 55.1998L89.4427 56.0722L95.3316 56.2903L96.2041 57.3809L98.8214 62.8336L100.566 65.4509L101.221 66.5414L100.566 66.7595H88.5703L86.8254 66.9776L86.6073 69.3768L86.3892 69.5949H85.2987V68.7225L85.7349 68.5044L85.953 63.0517V61.0887L85.5168 59.562V57.8171L85.0806 56.7265H84.4262V57.1628L83.3357 57.3809V56.5084L84.6444 54.5455ZM87.0435 59.562L86.8254 63.2698H97.9489L97.5127 61.9611L96.4222 59.7801L96.2041 59.562H87.0435Z" fill="#16252F"/>
<path d="M97.5127 99.9119L99.2576 100.13L99.9119 101.439L104.274 102.311L105.146 102.965V106.455L103.838 108.2L101.657 109.945L100.784 111.035L100.348 111.908L99.9119 113.871L99.0395 115.616L98.167 117.142L97.2946 117.361L94.6773 117.142L92.7143 115.834L91.1876 114.961L90.9695 114.307V111.908L91.8419 110.163L92.9325 109.291L95.3316 108.636H96.4222L96.6403 108.854H101.439L102.529 107.764L102.965 106.455V105.147L102.093 104.274L98.3851 103.838H97.0765H96.4222L96.6403 101.875L97.2946 100.784L97.5127 99.9119Z" fill="#981F2C"/>
<path d="M85.0806 95.3317H88.1341L90.0971 95.5498L90.7514 96.2041L90.5333 97.5127L89.0065 99.6938L87.0435 101.875L85.953 103.184L82.8995 104.71L80.7184 104.274L77.4468 102.965L77.6649 101.221L77.883 100.13V98.1671L77.2287 96.8584V96.4222L78.9736 95.7679L82.2452 95.5498L85.0806 95.3317Z" fill="#9A1E2C"/>
<path d="M89.6608 113.871L90.5333 114.307L90.7514 116.27L92.2781 115.834L93.5868 116.052L94.4592 116.924L94.6773 118.233L92.4962 120.196L90.5333 121.505L89.4427 121.941L86.3892 124.558L85.5168 125.212H83.99V124.776L83.1176 124.558L82.8995 123.468L83.1176 122.813H82.6814L82.4633 122.377V119.323L83.5538 117.142L84.4262 116.27L84.8625 116.052L87.4798 115.834L88.5703 115.179L89.6608 113.871Z" fill="#167D4D"/>
<path d="M61.3068 67.1957L61.743 67.632V75.0476L60.8706 75.2657V75.7019H59.9982L60.4344 76.3563L60.8706 78.1011L61.5249 76.7925H61.9611L62.6155 77.883L63.706 78.5373L64.3603 79.6279L64.5784 80.5003L64.1422 81.3727L60.8706 81.809L60.4344 82.8995L59.9982 83.5538H56.7266L55.4179 82.4633L54.5455 82.0271L52.5825 80.7184L52.3644 80.2822V76.3563L52.8006 75.7019H54.9817H55.1998V75.2657L55.8541 75.0476H61.0887L61.3068 67.1957Z" fill="#147F4D"/>
<path d="M91.6238 97.0765H92.7143L94.2411 98.3851H96.8584L97.0765 99.4757L96.4222 102.747L96.2041 106.673L95.7679 107.764L94.8954 108.2L93.1506 107.982L92.2781 107.546L92.7143 106.673L92.06 107.109H90.5333L89.6608 105.801H89.0065L86.8254 103.183L87.0435 102.093L89.4427 99.6938L91.1876 97.5127L91.6238 97.0765Z" fill="#09A891"/>
<path d="M47.566 75.2657H52.1463L55.1998 75.4839L55.636 75.702V81.809H55.4179V75.9201H52.8006L52.5825 76.3563V80.2822L53.4549 81.1547L55.1998 82.2452L56.2903 82.8995V83.3357L59.9982 83.5538L60.4344 82.6814L60.8706 81.5909L62.1793 81.3728H64.1422V80.5003H64.5784L63.4879 78.5374L62.1793 77.6649L61.9611 76.7925H61.5249L61.3068 77.6649H61.0887V76.1382L61.3068 75.9201H67.1957L67.632 76.7925L67.4138 80.5003L66.9776 81.3728L68.5044 81.5909V81.809L66.1052 82.2452L61.3068 83.772L58.0352 84.2082H56.5085L54.7636 83.5538L51.0558 80.9365L48.8747 79.4098L47.566 77.2287V75.2657Z" fill="#127F4E"/>
<path d="M238.628 48.4385L240.81 48.6566L242.336 49.529L243.209 50.6196L243.427 51.2739V54.3274L242.554 55.636L241.464 56.5085L240.373 56.9447H237.756L235.793 56.0722L234.703 54.7636L234.266 53.455V51.7101L234.921 50.1833L236.447 48.8747L238.628 48.4385Z" fill="#15262F"/>
<path d="M159.673 96.6403H168.18L168.616 97.0765L169.706 99.9119L171.887 105.146L174.723 111.908L177.994 119.76L181.484 128.266L182.793 131.319V131.538H174.287L172.978 128.702L171.669 124.776H156.402L154.439 130.011L153.785 131.538H145.715L145.933 130.447L148.114 124.994L150.513 118.887L152.912 112.998L155.093 107.328L158.147 99.9119L159.237 96.8584L159.673 96.6403ZM163.599 104.71L162.727 106.673L160.11 113.871L158.583 118.015V118.669H169.27L168.616 116.488L165.344 108.2L164.036 104.928L163.599 104.71Z" fill="#15242E"/>
<path d="M145.933 51.2739L154.657 51.492L157.71 59.3439L159.455 63.706L161.418 68.9406L164.472 77.0106L165.126 78.3192L167.962 70.0311L169.27 66.7595L171.015 61.5249L172.978 56.2903L174.505 51.7101L174.723 51.492H182.793L182.139 53.6731L178.649 62.6155L176.25 68.9406L172.978 77.6649L169.706 86.1711L169.488 86.3892H160.11L159.019 83.7719L156.838 78.3192L155.093 74.1752L152.912 68.9406L146.805 53.6731L145.933 51.7101V51.2739Z" fill="#15242E"/>
<path d="M193.48 59.562H196.097L199.151 59.9982L201.986 61.0887L204.604 63.0517L206.349 65.4509L207.439 68.0682L207.875 71.1217V75.0476L207.657 75.2657H189.118L189.554 77.4468L190.427 79.1917L191.953 80.5003L193.698 81.1546L195.007 81.3727H196.752L199.587 80.5003L201.332 79.4098L202.204 78.5373L203.295 78.9735L205.912 81.1546L207.003 82.0271L206.567 82.8995L204.604 84.6443L201.986 86.1711L198.279 87.2616L196.316 87.4797H193.48L191.081 87.0435L187.591 85.7349L185.41 84.2081L183.883 82.6814L182.575 80.5003L181.484 77.6649L181.048 75.7019V70.9036L181.92 67.6319L183.229 65.0146L185.192 62.8336L186.937 61.5249L189.118 60.4344L191.735 59.7801L193.48 59.562ZM193.48 65.0146L191.299 65.8871L189.99 67.6319L189.118 69.813V70.4673H200.023L200.241 70.0311L199.587 67.85L198.715 66.5414L197.624 65.669L195.879 65.0146H193.48Z" fill="#15242E"/>
<path d="M279.197 105.365H284.649L287.048 106.019L288.793 106.891L290.756 108.418L292.283 110.817L292.937 112.998L293.155 115.834L293.374 126.739L296.427 126.957L296.645 127.175V131.319L295.555 131.974L294.682 132.192L290.974 132.41L289.011 131.974L287.703 131.101L286.83 130.011L286.176 128.92L284.431 130.229L283.341 131.101L281.378 131.974L278.76 132.41H276.579L273.962 131.974L271.563 130.665L270.036 129.138L268.945 126.739L268.727 125.649V123.904L269.6 121.068L270.472 119.76L271.781 118.669L274.398 117.361L278.324 116.488L285.304 116.052V114.525L284.431 112.344L283.341 111.472L282.032 111.035H279.851L277.67 111.69L274.18 113.653L273.09 114.525L272.217 113.435L269.6 109.945L270.69 108.854L274.398 106.673L277.888 105.583L279.197 105.365ZM279.633 120.632L277.452 121.723L276.797 122.377L276.361 124.34L277.234 126.085L278.978 126.957H281.814L283.559 126.085L285.085 124.34L285.74 122.377L285.522 120.85L285.304 120.632H279.633Z" fill="#15242E"/>
<path d="M267.855 60.2163H275.707L280.069 70.6855L282.686 77.4468L283.122 77.883L285.522 69.1587L288.139 60.4344L288.357 60.2163H295.773L295.991 60.6525L294.028 65.8871L290.32 75.9201L287.921 82.4633L284.867 90.5333L283.122 93.8049L281.159 95.7679L279.415 96.6403L278.106 97.0765L276.579 97.2946H272.653L270.472 96.8584L270.254 96.2041L271.127 90.7514L274.18 90.9695L276.361 90.3152L277.452 89.2246L278.324 87.4798L278.542 85.953L277.452 82.8995L275.707 79.1917L272.435 71.9941L268.727 63.706L267.637 60.8706L267.855 60.2163Z" fill="#15242E"/>
<path d="M259.567 49.3109H261.748L265.02 49.7471L266.11 50.1833L266.328 51.2739L265.674 55.8541L263.493 55.4179H260.657L259.567 56.0723L259.131 57.1628L258.912 60.2163H265.456L265.674 65.8871L265.456 66.1052H258.912V86.1711L258.694 86.3892H251.279L251.061 86.1711L250.843 66.1052L246.698 65.8871V60.2163H250.624L250.843 56.7266L251.497 54.1093L252.805 51.9282L254.55 50.6196L256.731 49.7471L259.567 49.3109Z" fill="#15242E"/>
<path d="M251.933 105.146H257.604L260.439 105.801L262.62 106.891L264.801 108.636L266.328 110.381L265.892 111.254L262.402 114.089L261.53 114.743L260.657 114.525L259.349 112.78L258.258 111.908L256.513 111.254H253.46L251.279 112.344L249.97 113.871L249.316 115.398L248.88 117.579V119.76L249.534 122.595L250.842 124.558L252.587 125.649L253.678 126.085H256.513L259.131 124.994L260.003 124.558V124.122L260.657 123.468L261.094 122.813L262.184 123.249L265.456 124.994L266.764 125.867L266.546 126.739L264.147 129.356L261.966 130.883L259.785 131.756L256.295 132.41H253.46L250.188 131.974L246.698 130.447L244.517 128.702L243.209 127.175L242.118 125.431L241.246 123.249L240.81 120.85V116.706L241.682 112.78L242.773 110.817L244.735 108.636L246.262 107.328L249.752 105.583L251.933 105.146Z" fill="#15242E"/>
<path d="M193.698 95.3317H199.805L202.204 95.7679V97.949L201.55 101.439L200.896 101.657L199.151 101.221H196.316L195.443 102.093L195.007 103.184V105.801L201.55 106.019V111.69H194.789V131.538H187.373L187.155 130.447V111.472L186.283 111.69H183.011L182.793 111.472V106.019L186.719 105.801L187.155 100.784L188.027 98.8214L189.554 97.0765L192.171 95.7679L193.698 95.3317Z" fill="#15242E"/>
<path d="M227.287 59.562H230.34L230.558 59.7801V62.6155L230.122 67.1957H225.324L223.143 67.85L221.398 69.3768L220.526 71.5579L220.307 86.3892H212.892L212.674 69.3768L212.456 60.4344H219.217L219.653 63.706V64.3603L222.707 61.3068L224.233 60.4344L225.978 59.7801L227.287 59.562Z" fill="#15242E"/>
<path d="M219.653 105.146H223.797L224.015 105.583L223.579 112.562H218.563L216.6 113.216L215.291 114.307L214.637 115.398L214.418 116.27L214.2 128.702L213.982 131.319L213.764 131.538H206.349V106.019H212.674L212.892 106.237L213.328 110.381L214.855 108.418L216.6 106.891L218.563 105.583L219.653 105.146Z" fill="#15242E"/>
<path d="M235.139 60.2163H242.336L242.554 60.4344L242.773 86.1711L242.554 86.3892H235.139L234.921 86.1711V60.4344L235.139 60.2163Z" fill="#15242E"/>
<path d="M228.159 106.019H235.575L235.793 106.237V131.538H228.159L227.941 111.035V106.237L228.159 106.019Z" fill="#15242E"/>
<path d="M230.777 94.8954H233.176L235.139 95.7679L236.229 97.0765L236.666 98.6033L236.447 100.348L235.575 101.875L234.484 102.747L233.394 103.184L231.649 103.402L229.686 102.965L227.941 101.439L227.287 99.6938L227.505 97.5127L228.377 96.2041L229.468 95.3317L230.777 94.8954Z" fill="#15242E"/>
<path d="M73.739 65.4509L74.8295 65.669L76.1382 66.3233L76.3563 67.1957V68.9406L77.0106 69.1587L77.2287 67.6319L77.4468 67.1957L78.7554 67.4138L80.9365 68.5044L80.7184 70.0311L79.6279 73.0846L78.9736 75.92L78.3192 76.3563L73.739 74.3933V73.0846L74.6114 72.2122L74.8295 71.3398L72.8665 71.1217L70.9036 69.813L69.3768 69.5949L69.813 68.7225L73.3027 65.8871L73.739 65.4509Z" fill="#FDDB35"/>
<path d="M55.4179 62.1793L55.8541 62.8336L56.2903 64.1422L61.0887 66.7595L61.3068 67.1957V74.6114L61.0887 75.0476H55.1998V62.8336L55.4179 62.1793Z" fill="#FDDB35"/>
<path d="M104.928 72.4303H105.146L106.019 75.2657H108.418L111.69 74.8295L114.961 75.0476L115.179 75.2657L114.961 78.7554L114.307 81.8089L113.435 81.5908L109.945 80.5003L109.727 80.0641L110.163 79.1916L110.817 76.5743L108.636 76.7925L107.109 77.0106L105.146 76.5743L104.274 76.1381L102.093 75.7019V76.1381L101.439 75.92L100.784 74.6114L99.4757 74.1752H89.8789L89.4427 74.6114L89.0065 73.7389L89.2246 73.3027H99.9119L102.311 73.7389L104.492 73.5208L104.928 72.4303Z" fill="#2B4B3E"/>
<path d="M78.3192 107.109H80.0641L81.809 107.764L82.6814 108.2V108.636L81.809 109.072L82.4633 109.945L83.3357 109.727L83.7719 108.636L84.6444 108.854L85.7349 109.945L86.8254 111.253L87.6979 113.216V114.525L86.6073 115.616L85.5168 115.179L85.0806 114.307L84.2081 114.525L83.3357 115.179L82.8995 116.27H81.5908L80.9365 115.834L80.7184 114.307L80.5003 114.089V112.562L80.9365 111.472L78.9736 111.035L77.883 109.727L77.6649 108.2L78.3192 107.109Z" fill="#12804F"/>
<path d="M81.3727 69.3768H82.8995L83.7719 69.5949V78.7555L84.2081 79.6279L85.0806 79.846L85.2987 77.2287L85.5168 70.0312H86.6073L87.2616 70.9036L87.916 72.4303L89.2246 73.739L89.4427 74.8295L89.0065 75.2657L87.6979 74.1752H87.2616L86.8254 75.9201V81.3728H86.3892V82.2452L85.0806 82.8995L84.6444 81.809L84.4262 80.2822L83.5538 79.846L82.4633 78.1011L81.809 77.0106V76.5744L80.9365 76.1382L79.6279 76.3563L79.846 73.9571L81.1546 69.5949L81.3727 69.3768Z" fill="#2E433A"/>
<path d="M103.402 85.953L107.109 86.1711L108.636 87.4798V87.916H109.072L108.854 89.2246L108.2 89.8789H107.764L107.328 90.7514L104.492 93.3687L103.838 94.4592L104.056 96.6403L104.928 101.221V102.965L103.402 102.311L102.529 101.875L104.056 101.439L103.838 100.13L102.747 99.4757V99.0395L101.657 98.6033L100.566 97.2946L101.657 96.4222L102.093 92.06L102.965 90.3152L103.402 87.6979V85.953Z" fill="#2B3533"/>
<path d="M101.439 77.6649L102.529 79.846L105.146 80.5003L108.636 80.0641L109.945 78.9736L110.381 78.5373L110.163 79.6279L109.945 80.2822L113.435 81.3727L114.307 81.809L114.089 83.7719L112.562 85.5168L111.472 86.3892H110.817L109.727 87.0436L107.982 86.1711V85.0806L109.291 83.5538L108.418 83.1176L107.764 81.5909H107.109V82.6814L106.455 83.3357H104.71L102.747 83.1176L101.002 83.3357L100.784 82.4633L103.62 81.3727L103.838 80.9365L102.747 80.7184L101.875 80.2822L101.221 77.883L101.439 77.6649Z" fill="#137F4E"/>
<path d="M86.6073 102.529L87.2617 103.402L89.2246 105.801H89.8789L90.5333 106.891H92.06L92.9325 106.455L92.7143 107.328L92.4962 107.546L93.8049 107.982L95.5498 107.764L95.986 106.673L96.2041 102.747H96.4222L96.6403 103.838L97.0765 103.62L100.348 103.838L102.529 104.274L103.184 105.146L102.965 107.328L102.093 108.636L101.439 109.072H96.6403L96.4222 108.854H93.3687L90.7514 108.636L89.6608 107.982L88.1341 105.583L86.6073 103.62V102.529Z" fill="#19814D"/>
<path d="M79.4098 67.85L80.7184 68.0681L81.5908 68.9406L80.9365 70.9035L79.846 75.0476V76.1381L80.9365 75.92L82.0271 77.0106L82.8995 78.5373L82.6814 78.9735L80.9365 76.5743L80.0641 76.3562L79.6279 77.2287L78.7554 78.5373L77.6649 83.1176V85.5168L75.4838 86.8254L75.2657 87.4797L74.6114 88.1341L76.1382 88.3522L80.0641 88.5703V89.4427H80.5003L80.7184 90.7514L79.846 91.8419L78.9736 91.6238L77.6649 91.1876L76.1382 90.9695L75.4838 91.6238L76.1382 92.2781L76.5744 93.8049L78.1011 94.8954L84.2081 95.1135V95.3316L82.0271 95.5497L81.3727 95.7678L78.9736 95.9859L77.0106 96.4222L74.8295 93.1505L73.739 92.06V87.916L73.9571 86.8254L75.0476 86.3892L76.5744 85.2987L78.3192 78.3192L78.9736 77.0106L76.5744 75.92L75.7019 75.4838L76.3563 75.2657L78.5373 76.1381L79.1917 74.1752L79.846 71.5579L80.9365 68.5044L79.4098 68.0681V67.85Z" fill="#1C844F"/>
<path d="M94.8954 117.142H97.9489L97.2946 119.105L95.7679 121.505L94.023 123.468L92.2781 124.994L90.0971 126.739L88.3522 127.393H84.6444L83.99 126.739L84.2081 126.085L86.1711 125.649H87.4798L87.916 124.34L88.5703 124.122V123.468L90.0971 122.595L91.6238 122.377L91.8419 121.723H92.2781L92.7143 120.632L94.4592 119.105L94.8954 118.233V117.142Z" fill="#2B3733"/>
<path d="M107.109 81.3727L107.982 81.5908L108.854 83.3357L109.291 83.5538L108.854 84.4263L108.2 85.0806L107.982 86.1711L109.072 86.6073L109.727 86.8254L110.817 86.1711H111.472L111.035 87.0435L109.291 88.5703L109.072 87.916H108.636L107.109 86.3892L103.62 86.1711V88.1341L103.184 90.3152L102.311 92.06L102.093 91.6238L102.747 89.8789L102.965 88.1341L102.529 86.6073L101.002 85.7349H99.0395L95.986 86.6073L94.2411 87.2617V85.953L98.167 84.6444L99.0395 83.5538L99.9119 82.6814V83.7719L106.455 83.1176L106.891 82.2452L107.109 81.3727Z" fill="#2E3533"/>
<path d="M73.0846 63.9241L73.5209 64.7966L75.2657 65.2328L77.883 66.7595L78.5373 67.1958H77.4468L77.0106 69.1587L76.1382 68.9406V66.9776L75.92 66.3233L74.3933 65.669L73.5209 65.8871L71.776 67.4139L69.5949 69.1587L69.3768 69.5949H70.9036L72.8665 70.9036L74.8295 71.3398L74.6114 72.4303L73.5209 72.6484L73.3027 73.3028L73.0846 71.9941L71.1217 71.5579L72.6484 72.2122L72.8665 72.4303V73.739L72.2122 74.3933L69.5949 75.2657H68.5044V70.2493L68.2863 75.0476H68.0682L67.8501 69.813L66.5414 69.5949L66.1052 69.3768V68.9406L65.669 68.7225H68.0682L70.4673 66.9776L71.9941 65.8871H72.4303L72.6484 65.2328H73.0846V63.9241Z" fill="#723B36"/>
<path d="M87.2617 73.9571L88.1341 74.1752L89.0065 75.0476L89.4427 74.8295V77.6649L89.2246 77.2287H88.7884L88.5703 80.0641V81.5909V81.809H88.7884V82.8995L89.4427 82.6814L90.3152 83.5538L91.6238 83.9901V84.2082L85.953 85.2987L84.6444 85.7349L83.99 85.5168L84.2081 84.8625V81.1546L82.8995 79.6279L83.1176 78.9736L83.99 80.0641L84.6444 80.7184L85.0806 82.6814L86.1711 82.0271L86.6073 80.7184V75.9201L87.0435 74.1752L87.2617 73.9571Z" fill="#137F4E"/>
<path d="M87.6979 106.673L88.7884 107.109L89.4427 108.418L90.9695 109.072H92.9325V109.509L91.8419 110.599L91.1876 111.908L90.9695 113.653L90.5333 113.216L89.4427 113.435L89.0065 114.089H88.1341L87.2617 111.69V110.599L86.3892 110.163L85.7349 109.291V108.854L85.0806 108.636L85.2987 107.546L85.953 107.109L87.6979 106.673Z" fill="#2C3533"/>
<path d="M47.566 75.2657H52.1463L55.1998 75.4839L55.636 75.702V81.809H55.4179V75.9201H52.8006L52.5825 76.3563V80.2822L53.8912 81.5909L52.3644 81.809L49.0928 79.6279L47.566 77.2287V75.2657Z" fill="#97202C"/>
<path d="M72.4303 76.5743L73.9571 76.7924L75.2657 77.6649L75.92 78.7554L75.7019 80.5003L74.3933 82.027L73.0846 82.4633V82.027L71.3398 81.1546L72.4303 82.2451L71.3398 82.027L70.2492 80.9365L70.0311 79.1916L70.6855 77.883L72.4303 76.5743Z" fill="#12AB96"/>
<path d="M111.908 75.0476H114.961L115.179 75.2657L114.961 78.7554L114.525 81.1546L112.562 80.9365L111.254 80.2822L111.035 80.0641L111.254 78.5373L111.69 76.7925L111.908 75.0476Z" fill="#97202D"/>
<path d="M94.4592 116.924L95.1135 117.361L94.8954 118.887L93.8049 119.978H93.3687L93.1506 120.632H92.7143L92.2781 121.723L91.6238 122.377L89.4427 123.031L88.5703 123.468V124.122L88.1341 124.34L87.4798 125.649L85.0806 126.085H84.2081L84.4263 126.739L83.7719 126.957L82.4633 125.867L81.5909 124.34V123.904H82.0271L82.2452 120.196H82.4633L82.6814 122.813H83.1176L83.3357 124.558L83.99 124.776V125.212L85.953 124.776L88.5703 122.377L89.6608 121.505L91.1876 120.85L93.1506 119.324L94.4592 118.233V116.924Z" fill="#37423A"/>
<path d="M54.9817 56.9446H55.1998L55.636 61.0887L55.4179 61.9611L54.9817 62.1792L49.0928 62.3973L49.3109 61.5249L53.0187 58.4714L54.9817 56.9446Z" fill="#16252F"/>
<path d="M104.71 86.3892H107.328L108.636 87.4798V87.916H109.072L108.854 89.2246L108.2 89.8789H107.764L107.328 90.7514L104.492 93.3687L104.056 94.023L103.184 93.8049L102.747 93.5868V92.2781L104.274 91.1876H104.71L104.928 90.3152H105.365V89.8789L106.237 89.6608V89.2246L106.673 89.0065L107.109 87.916L104.71 86.8254V86.3892Z" fill="#15272F"/>
<path d="M84.4263 114.089L85.0806 114.307L86.1711 115.398L87.6979 114.961L87.916 114.525L88.3522 114.743L88.1341 115.834L87.4798 116.052L84.8625 116.27L83.99 116.488L83.5538 117.579L82.6814 119.324L82.2452 122.813L82.0271 123.904H81.5909L81.1546 119.324L80.5003 117.142V116.488H82.6814L83.3357 114.961L84.4263 114.089Z" fill="#2B3835"/>
<path d="M64.1422 81.1547L65.8871 81.3728L66.1052 82.2452L61.3068 83.772L58.0352 84.2082H56.5085L54.7636 83.5538L52.5825 82.0271L53.0187 81.5909L54.5455 81.809L55.636 82.4633L56.2903 82.8995V83.3357L59.9982 83.5538L60.4344 82.6814L60.8706 81.5909L64.1422 81.1547Z" fill="#293D36"/>
<path d="M68.7225 70.0311H69.3768L70.0311 71.1217L72.6484 72.2122L72.8665 72.4303V73.739L72.2122 74.3933L69.5949 75.2657H68.5044V70.4673L68.7225 70.0311Z" fill="#FDDB35"/>
<path d="M61.9611 67.632L63.9241 68.2863L66.5414 69.3768L68.0682 69.5949V73.3028L67.8501 75.2657L67.632 75.4838H65.4509L66.5414 73.5209V70.9036H66.1052V70.4674L64.7965 70.0311V69.5949L63.2698 69.1587L61.5249 68.7225V67.8501L61.9611 67.632Z" fill="#2B3433"/>
<path d="M77.4468 102.965L79.846 103.62L81.3727 104.274L82.8995 104.492L86.1711 102.965L85.953 103.838L84.6444 104.928H84.2081L83.7719 105.801L83.3357 106.019H81.809L80.2822 104.928H78.1011L77.883 107.109L76.7925 107.328V105.801L77.4468 102.965Z" fill="#2B3633"/>
<path d="M79.4098 67.85L80.7184 68.0681L81.5908 68.9406L80.9365 70.9035L79.846 75.0476V76.1381L80.9365 75.92L82.0271 77.0106L82.8995 78.5373L82.6814 78.9735L80.9365 76.5743L80.0641 76.3562L79.6279 77.2287L78.7554 78.5373L77.6649 83.1176V85.5168L76.1382 86.3892L75.7019 86.1711L76.5744 85.2987L78.3192 78.3192L78.9736 77.0106L76.5744 75.92L75.7019 75.4838L76.3563 75.2657L78.5373 76.1381L79.1917 74.1752L79.846 71.5579L80.9365 68.5044L79.4098 68.0681V67.85Z" fill="#177B4C"/>
<path d="M110.163 81.1547L111.69 81.3728L112.78 82.0271L112.562 83.1176L111.908 84.6444L110.599 85.7349L109.727 85.953L108.854 85.5168L109.291 84.4263L109.727 83.9901H110.599V83.5538L109.291 83.3357L108.854 82.8995V81.809L109.291 81.3728L110.163 81.1547Z" fill="#09A892"/>
<path d="M82.0271 70.4673L82.8995 70.6855V71.1217L83.5538 70.9036V75.7019L83.1176 75.4838L81.5908 75.7019L80.9365 74.6114V71.776L81.5908 70.6855L82.0271 70.4673Z" fill="#137F4E"/>
<path d="M83.99 69.813L84.8625 70.0312L85.0806 70.2493V78.9736H84.2081L83.7719 75.9201V70.4674L83.99 69.813Z" fill="#137F4E"/>
<path d="M93.1506 94.8954H93.5868L93.3687 96.4222L91.8419 96.8584L89.4427 99.9119L87.0435 102.311V101.657L89.2246 99.2576L90.5333 97.0765V95.7679L88.1341 95.5498H85.0806L82.2452 95.7679L82.0271 95.3317L84.2081 95.1136H92.06L93.1506 94.8954Z" fill="#2C4A3C"/>
<path d="M90.3152 75.4838H93.5868L94.6773 75.92L95.5497 76.7925V77.2287L94.4592 77.6649H90.7514L89.8789 77.0106V75.92L90.3152 75.4838Z" fill="#FDFDFD"/>
<path d="M87.4798 87.4797L89.0065 87.6978L90.7514 87.916L91.8419 88.5703V89.6608L90.9695 89.8789L89.8789 88.7884L89.4427 88.5703H88.1341L87.4798 89.6608L87.2617 90.097L85.0806 90.5332H84.2081V88.3522L85.953 88.5703L87.2617 88.1341L87.4798 87.4797Z" fill="#137F4E"/>
<path d="M61.5249 76.7925H61.9611L62.6155 77.883L63.706 78.5373L64.3603 79.6279L64.5784 80.5003L63.9241 81.1546H61.5249L61.3068 80.0641V77.4468L61.5249 76.7925Z" fill="#11A98E"/>
<path d="M73.0846 63.9241L73.5209 64.7966L75.2657 65.2328L77.883 66.7595L78.5373 67.1958H77.4468L77.0106 69.1587L76.1382 68.9406V66.9776L75.92 66.3233L74.3933 65.669L73.5209 65.8871L71.776 67.4139L70.4674 68.5044L70.0311 68.2863L71.3398 66.9776V66.3233L72.4303 65.8871L72.6484 65.2328H73.0846V63.9241Z" fill="#8A2930"/>
<path d="M72.2122 77.883H74.1752L74.6114 78.3192L74.3933 79.846L73.9571 80.9365L73.5209 81.3727L72.4303 81.1546L71.3398 79.4098L71.5579 78.3192L72.2122 77.883Z" fill="#193735"/>
<path d="M77.2287 55.636H79.6279L81.1546 58.0352L82.6814 58.2533V58.9077L82.2452 59.3439L80.5003 59.1258L80.2822 58.4714L79.6279 58.2533L79.4098 57.3809L77.2287 56.7266L77.0106 55.8542L77.2287 55.636Z" fill="#15262F"/>
<path d="M99.9119 97.9489L101.002 98.167V98.6032H101.439V99.0395L102.747 99.2576L103.402 99.9119V101.439H101.002L100.348 100.784L99.9119 97.9489Z" fill="#09A892"/>
<path d="M103.838 96.6403H104.056L104.928 101.221V102.965L103.402 102.311L102.529 101.875L104.056 101.439L103.838 100.13L102.747 99.4757V99.0394L101.657 98.6032L101.439 98.167L102.311 97.9489L102.529 97.5127L103.838 97.2946V96.6403Z" fill="#294F40"/>
<path d="M105.365 83.7719L106.673 84.2081L107.109 84.6443L106.891 85.5168L106.019 85.953L102.965 85.7349L102.529 85.2987V84.4262L103.402 84.2081L104.71 83.99L105.365 83.7719Z" fill="#9B1E2C"/>
<path d="M92.7143 123.031H93.1506L93.3687 123.904L91.6238 125.649L90.0971 126.739H88.7884L89.0065 125.867L90.0971 124.776L90.9695 123.686L92.7143 123.031Z" fill="#162830"/>
<path d="M106.673 84.2081L108.636 84.4262L108.2 85.0806L107.982 86.1711L109.072 86.6073L109.727 86.8254L110.817 86.1711H111.472L111.035 87.0435L109.291 88.5703L109.072 87.916H108.636L107.109 86.3892L104.492 86.1711V85.953L106.455 85.5168L106.891 85.2987L106.673 84.2081Z" fill="#2B413A"/>
<path d="M70.0311 69.5949L71.3398 69.813L72.8665 70.9036L74.8295 71.3398L74.6114 72.4303L73.5209 72.6484L73.3027 73.3027L73.0846 71.9941L70.6855 71.3398L69.5949 70.9036L69.813 69.813L70.0311 69.5949Z" fill="#803032"/>
<path d="M87.2616 112.344H87.6979L88.1341 113.216V114.089H89.0065L89.4427 113.216L90.5333 112.998L91.4057 114.961L92.7143 115.616L92.2781 116.052L90.7514 116.488L90.5333 116.27L90.3152 114.307H89.4427L88.3522 115.616L88.1341 114.743L87.916 114.961L87.0435 115.398L87.4798 114.525V113.216L87.2616 112.344Z" fill="#2E423A"/>
<path d="M53.0187 81.5908L54.5455 81.8089L55.636 82.4633L56.2903 82.8995V83.3357L59.9982 83.5538L60.2163 82.8995L60.4344 83.3357L60.2163 83.99L56.5085 84.2081L54.7636 83.5538L52.5825 82.027L53.0187 81.5908Z" fill="#2D4D3F"/>
<path d="M68.5044 70.0311L68.7225 70.4673L68.5044 75.2657L71.776 74.3933L72.6484 74.1752V72.4303L70.0311 71.3398L70.6855 71.1217L73.0846 71.9941L73.5209 72.6484L74.1752 72.4303L73.739 74.3933L73.3027 73.739L72.2122 74.8295L69.3768 75.92H68.2863L68.0682 75.0476L68.2863 70.2492L68.5044 70.0311Z" fill="#137F4E"/>
<path d="M97.7308 75.4838H100.13L100.348 75.7019V77.0106L99.9119 77.4468H97.2946L97.0765 76.5744L97.7308 75.4838Z" fill="#FDFDFD"/>
<path d="M83.99 109.291L84.8625 109.727L86.3892 111.69L86.6073 112.78L85.7349 112.998L84.2081 111.69L83.3357 111.035L83.5538 109.945L83.99 109.291Z" fill="#09A892"/>
<path d="M72.2122 76.3563H73.739L75.4838 77.4468L75.92 78.1011L75.7019 78.7554L74.8295 77.4468L73.5209 76.7925L71.9941 77.0106L70.6855 78.1011L70.2492 79.1917L70.4673 80.9365L71.776 82.0271L73.5209 82.2452L74.8295 81.3727L75.4838 80.5003L75.92 79.846L75.7019 81.1546L74.6114 82.2452L73.9571 82.6814H72.2122L70.6855 82.0271L70.0311 81.1546L69.813 80.5003V78.7554L70.6855 77.4468L72.2122 76.3563Z" fill="#137F4E"/>
<path d="M91.8419 102.747H92.7143L92.4962 104.71L92.06 106.019H90.9695L90.5333 105.583V104.274L91.4057 102.965L91.8419 102.747Z" fill="#157A4C"/>
<path d="M99.4757 88.7884L100.348 89.2246L101.439 89.8789L101.221 90.7514L99.9119 91.6238L98.8214 91.4057L98.167 90.7514L97.5127 90.5333L97.7308 89.8789L99.2576 90.097L99.4757 89.2246V88.7884Z" fill="#2D3F38"/>
<path d="M102.093 84.2081L102.965 84.4262H102.529L102.965 85.5168L104.492 85.7349L103.62 86.3892V88.1341L103.184 90.3151L102.311 92.06L102.093 91.6238L102.747 89.8789L102.965 88.1341L102.529 86.6073L101.439 85.953L101.875 85.5168L102.093 84.2081Z" fill="#2F443B"/>
<path d="M89.0065 87.6979L90.7514 87.916L91.8419 88.5703V89.6608L90.9695 89.879L89.8789 88.7884L89.4427 88.5703H88.1341L87.4798 89.6608H86.6073L86.8254 88.7884L87.916 87.916L89.0065 87.6979Z" fill="#483B37"/>
<path d="M81.1546 89.0065H82.4633L82.8995 89.4427V90.0971H82.4633L82.8995 91.1876L82.6814 91.6238H80.9365L80.7184 90.7514L80.9365 90.0971V89.4427L81.1546 89.0065Z" fill="#FDDB35"/>
<path d="M50.8377 60.2163L51.2739 60.4344L50.4014 61.525L50.1833 61.9612L52.1463 61.525L55.4179 61.3068V61.9612L54.9817 62.1793L49.0928 62.3974L49.3109 61.525L50.8377 60.2163Z" fill="#263B36"/>
<path d="M73.3028 73.5209L73.5209 74.3933L74.6114 74.6114L75.7019 75.0476V75.4838L74.6114 75.2657L74.1752 75.0476V75.4838H74.8295V75.9201L72.6484 75.702V76.1382L71.5579 75.9201L71.3398 75.4838H71.9941L72.2122 74.6114L73.3028 73.5209Z" fill="#453634"/>
<path d="M64.1422 81.1547L65.8871 81.3728L66.1052 82.2452L64.7965 82.4633L63.4879 81.809L63.2698 82.2452L60.6525 82.6814L60.8706 81.5909L64.1422 81.1547Z" fill="#2D463B"/>
<path d="M69.3768 51.0558H71.5579L72.8665 51.7101L72.6484 52.1463H66.5414L64.7965 52.3644L65.0147 51.9282L69.3768 51.0558Z" fill="#137F4E"/>
<path d="M81.3727 69.3768H82.8995L83.7719 69.5949L83.3357 71.1217H82.8995L82.6814 70.6855H81.5908L81.1546 71.776L80.7184 71.9941L80.9365 70.2493L81.3727 69.3768Z" fill="#2F443B"/>
<path d="M101.221 104.71H102.311V107.109L101.657 108.2L101.002 108.418L100.566 107.982L101.439 106.237L100.784 105.146L101.221 104.71Z" fill="#FDDB35"/>
<path d="M78.7554 77.6649L78.9736 78.1011L78.1011 81.5909L77.6649 83.1176V85.5168L76.1382 86.3892L75.7019 86.1711L76.5744 85.2987L78.3192 78.3192L78.7554 77.6649Z" fill="#137F4E"/>
<path d="M78.9736 111.908L80.2822 112.344V114.307L80.0641 114.961H79.4098L78.7554 113.653L78.5373 112.344L78.9736 111.908Z" fill="#2A3A35"/>
<path d="M94.8954 74.3933H97.2946L97.0765 74.8295H96.6403L96.8584 76.5744L95.7679 76.7925L95.3316 76.3563L95.1135 74.8295L94.8954 74.3933Z" fill="#187149"/>
<path d="M96.8584 85.0806L97.5127 85.2987L97.2946 86.1711L94.2411 87.2616V85.953L96.8584 85.0806Z" fill="#2F443B"/>
<path d="M90.9695 110.163L91.8419 110.381L90.9695 112.562L89.8789 112.126L89.2246 110.599L90.9695 110.163Z" fill="#15222E"/>
<path d="M104.928 72.4303H105.146L105.365 74.3933L104.928 74.6114L101.002 74.3933L100.784 73.7389L104.492 73.5208L104.928 72.4303Z" fill="#213032"/>
<path d="M61.3068 67.1957L61.743 67.632V75.0476L60.8706 75.2657L61.0887 74.6114L61.3068 67.1957Z" fill="#137E4D"/>
<path d="M82.2452 119.105H82.4633L82.2452 123.468L82.0271 123.904H81.5908L81.3727 121.723V119.76H81.809L82.2452 119.105Z" fill="#293C35"/>
<path d="M80.2822 114.089L80.9365 114.307L81.1546 115.834L82.6814 116.052V116.706H80.2822L79.6279 114.961H80.0641L79.846 114.307L80.2822 114.089Z" fill="#2C483D"/>
<path d="M99.0395 105.801H99.9119L100.348 106.455L100.13 107.982L99.4757 108.2L99.0395 107.982L98.6033 106.891L97.9489 106.237H99.0395V105.801Z" fill="#9B1E2C"/>
<path d="M47.566 73.3027H48.0022L48.4385 74.1752V74.8295L53.8912 75.0476L54.5455 75.4838L47.566 75.2657V73.3027Z" fill="#2F443B"/>
<path d="M106.673 84.2081L108.636 84.4262L108.2 85.0806L107.982 86.1711L108.418 86.3892L104.492 86.1711V85.953L106.455 85.5168L106.891 85.2987L106.673 84.2081Z" fill="#2F443B"/>
<path d="M61.9611 78.5374L63.0517 78.9736L63.706 79.846L63.4879 80.5003H61.9611L61.5249 79.846L61.743 78.7555L61.9611 78.5374Z" fill="#FDFDFD"/>
<path d="M90.5333 118.233L90.9695 118.451L91.6238 119.105L91.4057 119.978L90.9695 120.414H90.097L89.6608 119.542L89.4427 118.669L90.5333 118.233Z" fill="#09A892"/>
<path d="M107.109 81.3727L107.982 81.5908L108.854 83.3357L109.291 83.5538L108.854 84.4263L108.636 83.5538H108.2L107.982 82.6814L107.109 83.5538H105.801L106.891 82.6814V81.5908L107.109 81.3727Z" fill="#2E3F38"/>
<path d="M88.7884 77.2287H89.2246L89.6608 78.9736V80.7184L88.5703 80.2822L88.3522 79.1917L88.7884 77.2287Z" fill="#2C3834"/>
<path d="M102.747 75.2657H104.056L106.019 76.3563L108.636 76.5744L107.764 77.0106L105.583 76.7925L104.274 76.1382L102.093 75.702V76.1382L101.439 75.9201V75.4839L102.747 75.2657Z" fill="#137F4E"/>
<path d="M76.1382 94.6773L77.2287 94.8954L77.883 95.3316L81.3727 95.5497V95.7678L78.9736 95.986L77.0106 96.4222L76.1382 95.1135V94.6773Z" fill="#2C4A3E"/>
<path d="M80.0641 107.982L80.9365 108.2V109.509L80.0641 109.945L79.1917 109.727L78.9736 109.072L79.1917 108.636H79.6279V108.2L80.0641 107.982Z" fill="#09A892"/>
<path d="M80.9365 117.797H82.6814L82.2452 119.324L81.5908 119.978L80.9365 118.451V117.797Z" fill="#15272F"/>
<path d="M103.184 99.6938L104.056 100.13L104.274 101.439L103.402 101.875H100.566L101.221 101.439H103.402L103.184 99.6938Z" fill="#15794C"/>
<path d="M72.6484 65.2328L72.8665 65.8871H73.5209L71.776 67.4139L70.4674 68.5044L70.0311 68.2863L71.3398 66.9777V66.3233L72.4303 65.8871L72.6484 65.2328Z" fill="#137F4E"/>
<path d="M73.0846 63.9241L73.5209 64.7966L75.2657 65.2328L75.92 65.669V66.1052L73.739 65.669L72.6484 66.1052L73.0846 63.9241Z" fill="#862C31"/>
<path d="M55.1998 61.3068L55.4179 61.9611L54.9817 62.1793H51.9282L52.1463 61.5249L55.1998 61.3068Z" fill="#303D37"/>
<path d="M55.1998 75.2657H55.8541V75.702H56.7266L56.0722 77.6649L55.8541 79.6279H55.636V75.702H55.1998V75.2657Z" fill="#35443A"/>
<path d="M104.274 100.784H104.71L104.928 101.221V102.965L103.402 102.311L102.529 101.875L104.056 101.439L104.274 100.784Z" fill="#2C493C"/>
<path d="M90.3152 98.1671V98.8214L87.916 101.439L86.8254 102.311L87.2616 101.439L89.2246 99.2576L90.3152 98.1671Z" fill="#1D6947"/>
<path d="M70.6855 79.4098L71.5579 79.846L72.2122 81.3728H71.1217L70.4674 80.7184V79.6279L70.6855 79.4098Z" fill="#FDFDFD"/>
<path d="M97.2946 104.492L98.8214 104.71V105.365L98.167 105.801H97.0765L96.8584 104.928L97.2946 104.492Z" fill="#FDDB35"/>
<path d="M98.167 87.4797H99.4757V88.3522L97.5127 88.7884H97.0765L96.6403 89.6608L96.8584 88.5703L97.9489 87.916L98.167 87.4797Z" fill="#09A892"/>
<path d="M103.838 96.6403H104.056L104.274 99.4757L103.402 99.2576L103.184 98.167L103.838 96.6403Z" fill="#26473C"/>
<path d="M81.5908 79.1917L82.0271 79.6279V81.1546L81.3727 81.8089H81.1546V79.6279L81.5908 79.1917Z" fill="#FDFDFD"/>
<path d="M84.8625 122.595L85.7349 122.813L86.3892 123.686L85.7349 124.122L84.8625 123.904L84.6444 122.813L84.8625 122.595Z" fill="#FDDB35"/>
<path d="M107.546 82.6814H107.982L108.2 83.5538H108.636V84.2082L106.891 83.99L106.673 83.5538L107.546 82.6814Z" fill="#15222E"/>
<path d="M75.7019 79.846L75.92 80.7184L75.0476 82.0271L73.9571 82.6814H72.2122V82.2452H73.5209L74.8295 81.3728L75.4838 80.5003L75.7019 79.846Z" fill="#128151"/>
<path d="M79.4098 67.85L80.7184 68.0681L81.5908 68.9406L80.9365 70.9035H80.2822L80.9365 68.5044L79.4098 68.0681V67.85Z" fill="#1A794C"/>
<path d="M104.71 83.3357L106.673 83.5538L108.636 84.2081L107.982 84.6443L105.365 83.99H104.71V83.3357Z" fill="#393735"/>
<path d="M87.916 87.916H89.0065L87.916 88.7884L87.4798 89.6608H86.6073L86.8254 88.7884L87.916 87.916Z" fill="#2F443B"/>
<path d="M95.1135 120.85H95.7678L95.5497 121.723L94.4592 122.813L94.023 121.723L95.1135 121.286V120.85Z" fill="#152E32"/>
<path d="M78.7554 89.6608L79.846 89.8789V90.9695L79.1917 91.1876L78.5373 90.5333L78.7554 89.6608Z" fill="#2E4139"/>
<path d="M47.566 73.3027H48.0022L48.6566 75.2657H47.566V73.3027Z" fill="#2E4139"/>
<path d="M74.1752 78.1011L74.6114 78.3192L74.3933 79.846L73.9571 80.9365H73.739V78.9736H74.1752V78.1011Z" fill="#205F43"/>
<path d="M76.1382 67.1957L76.7925 67.8501L77.4468 67.1957L77.0106 69.1587L76.1382 68.9406V67.1957Z" fill="#137F4E"/>
<path d="M105.146 84.2081H106.237L106.455 85.2987L105.146 85.0806V84.2081Z" fill="#137F4E"/>
<path d="M65.2328 69.1587L66.5414 69.3768L67.8501 69.813V70.4673L65.8871 69.813L65.2328 69.1587Z" fill="#15222E"/>
<path d="M81.809 68.0682L83.1176 68.2863L83.5538 68.5044V69.1587L81.809 68.9406L81.5909 68.2863L81.809 68.0682Z" fill="#15222E"/>
<path d="M54.9817 58.4714H55.4179V60.2163L54.5455 59.9982L54.3274 59.1258L54.9817 58.4714Z" fill="#2C3533"/>
<path d="M71.3398 50.6196H74.1752L73.5209 51.2739L73.3028 52.3644L72.8665 51.492V50.8377H71.3398V50.6196Z" fill="#216144"/>
</svg>
