<svg width="1200" height="630" viewBox="0 0 1200 630" fill="none" xmlns="http://www.w3.org/2000/svg">
<path d="M251.164 153.873H278.155L279.791 154.691L282.244 171.867H297.784L303.51 180.046L304.328 181.682L307.599 180.864L313.325 175.138L317.414 168.595L325.593 171.049L335.408 174.32L357.491 175.138L360.763 179.228L370.578 199.675L377.121 209.49L387.754 222.577L394.297 235.663L397.569 246.296H406.566L418.834 244.66L431.103 245.478L431.921 246.296L431.103 259.383L427.831 278.194L422.106 284.738L415.563 291.281L409.019 297.006L405.748 301.096H404.112L402.476 304.367L391.843 314.182L389.39 318.272L390.208 326.451L393.479 343.627L394.297 350.17V363.256L389.39 369.8L381.211 376.343L377.939 380.432L376.303 383.704L374.667 391.065L371.396 397.608L363.217 413.148L358.309 420.51L352.584 427.053L346.041 432.778L337.862 439.321L331.318 441.775H317.414L310.871 437.686L305.963 430.324L304.328 411.513L300.238 399.244L288.787 377.161L287.152 371.435L287.97 360.803L291.241 343.627L292.059 339.537V332.176L287.97 323.997L279.791 312.546L276.519 309.275V281.466L275.701 278.194L266.704 275.741L256.889 270.833L247.892 272.469L229.898 278.194L217.63 279.83H211.904L205.361 277.376L191.457 267.562L183.278 261.836L178.37 253.657L177.552 250.386V234.845L180.824 205.401L182.46 198.04L185.732 193.95L197.182 184.953L204.543 178.41L207.815 175.138L211.904 168.595L222.537 163.688L241.349 156.327L251.164 153.873ZM326.411 187.407L325.593 201.311H367.306L365.67 196.404L361.581 188.225L360.763 187.407H326.411ZM267.522 268.379L268.34 270.833L274.065 273.287V271.651L269.158 268.379H267.522Z" fill="#2F443B"/>
<path d="M272.429 51.6348H294.513L316.596 54.0885L337.044 58.1781L353.402 63.0855L366.488 67.9929L379.575 74.5361L391.025 81.0794L404.93 90.8942L412.291 96.6196L422.106 105.617L426.195 108.888L431.921 115.431L437.646 121.157L449.097 136.697L457.276 149.783L466.273 166.141L474.452 186.589L479.359 201.311L484.267 223.395L485.902 231.574L486.72 240.571V292.099L484.267 321.543L480.995 346.898L474.452 382.068L467.091 411.513L459.729 435.232L454.004 451.59L445.825 471.22L438.464 487.578L431.921 499.846L428.649 506.39L423.742 512.115L420.47 513.751H413.109L407.384 509.661L404.93 504.754L405.748 497.393L415.563 479.399L424.56 460.587L434.374 436.05L443.371 409.059L450.732 381.25L456.458 350.17L459.729 328.086L462.183 300.278L463.819 275.741V248.75L461.365 229.12L457.276 211.944L452.368 195.586L445.007 178.41L435.192 159.598L426.195 146.512L419.652 138.333L409.837 126.882L404.112 121.157L395.115 113.796L385.3 106.434L368.124 95.8017L349.312 86.8047L334.59 81.8973L317.414 77.8078L301.056 75.354L291.241 74.5361H273.247L254.435 76.9899L236.442 81.0794L219.266 86.8047L193.911 99.0733L181.642 107.252L171.009 115.431L160.376 125.246L156.287 129.336L148.108 138.333L137.475 153.873L130.932 164.506L124.389 178.41L117.845 196.404L113.756 213.58L111.302 234.027L110.484 248.75V273.287L108.031 279.012L103.941 282.284L101.487 283.102H95.7621L89.2188 279.012L87.583 275.741V229.938L90.8546 207.037L96.58 184.135L103.123 166.959L112.12 148.965L123.571 130.972L134.204 117.885L153.833 98.2554L165.284 89.2584L177.552 81.0794L186.549 76.172L198.818 69.6287L220.083 61.4497L242.167 55.7243L264.25 52.4527L272.429 51.6348Z" fill="#09A892"/>
<path d="M327.229 241.389L330.501 242.207L333.772 245.478L337.044 241.389H373.032L377.939 243.024L380.393 246.296L381.211 248.75L382.846 249.568V247.932L391.025 248.75L395.933 251.203L404.112 252.021L413.109 250.386L415.563 251.203L414.745 256.111L413.109 262.654L412.291 265.108L425.377 269.197L428.649 270.833L427.831 278.194L422.106 284.738L415.563 291.281L409.019 297.006L405.748 301.096H404.112L402.476 304.367L391.843 314.182L389.39 318.272L390.208 326.451L393.479 343.627L394.297 350.17V363.256L389.39 369.8L381.211 376.343L377.939 380.432L376.303 383.704L374.667 391.065L371.396 397.608L363.217 413.148L358.309 420.51L352.584 427.053L346.041 432.778L337.862 439.321L331.318 441.775H317.414L310.871 437.686L305.963 430.324L304.328 411.513L300.238 399.244L288.787 377.161L287.152 371.435L287.97 360.803L290.423 350.17L299.42 352.624L305.146 355.077L310.871 355.895L322.322 350.17L328.047 343.627L334.59 336.266L339.498 328.086V323.179L330.501 322.361H319.05L308.417 323.179L307.599 321.543L292.877 320.725L286.334 315.818L284.698 309.275L281.426 306.003H283.88L285.516 304.367L292.877 305.185L296.967 307.639L300.238 306.821L301.874 304.367V299.46H300.238V296.188H285.516L279.791 294.552L280.608 292.099H282.244L283.062 288.827L288.787 285.555L290.423 284.738V275.741L294.513 258.565L297.784 253.657L301.874 249.568L305.963 252.839L310.053 259.383L317.414 266.744L319.05 274.105L323.139 271.651L324.775 266.744V248.75L326.411 242.207L327.229 241.389Z" fill="#2E443B"/>
<path d="M269.976 102.345H293.695L312.507 104.798L329.683 108.888L345.223 114.613L358.309 121.157L371.396 129.336L385.3 139.968L393.479 147.329L400.84 155.509L410.655 168.595L417.198 179.228L423.742 192.314L427.831 202.947L432.739 218.487V224.212L430.285 228.302L422.924 231.574L417.198 230.756L413.109 227.484L409.837 218.487L406.566 207.854L400.84 194.768L393.479 182.499L386.118 172.684L377.121 162.87L366.488 153.055L350.13 142.422L337.044 135.879L323.957 130.971L307.599 126.882L287.152 124.428H276.519L254.435 127.7L238.077 132.607L224.991 138.333L215.176 143.24L203.725 151.419L195.546 158.78L189.003 164.505L179.188 175.956L171.827 188.225L165.284 202.129L160.377 219.305L158.741 231.574L157.105 266.743L154.651 280.648L148.108 294.552L142.383 302.731L138.293 307.639L129.296 315L117.845 321.543L107.213 324.815H94.1263L90.0367 321.543L87.583 313.364L89.2188 308.457L94.9442 303.549L105.577 301.913L119.481 293.734L126.842 284.737L131.75 274.105L133.386 265.926L134.204 239.753L136.657 217.669L140.747 200.493L145.654 187.407L153.833 171.867L162.012 159.598L169.373 149.783L175.917 144.058L183.278 136.697L197.182 126.882L214.358 117.067L234.806 108.888L251.164 104.798L269.976 102.345Z" fill="#09A892"/>
<path d="M327.229 241.389L330.501 242.207L333.772 245.478L337.044 241.389H373.032L377.939 243.024L380.393 246.296L381.211 248.75L382.846 249.568V247.932L391.025 248.75L395.933 251.203L404.112 252.021L413.109 250.386L415.563 251.203L414.745 256.111L413.109 262.654L412.291 265.108L425.377 269.197L428.649 270.833L427.831 278.194L422.106 284.738L418.016 288.009H415.563L411.473 290.463L404.93 287.191V283.102L409.837 277.376L406.566 275.741L404.112 270.015H401.658V274.105L399.205 276.558H392.661L385.3 275.741L378.757 276.558L377.939 273.287L388.572 269.197L389.39 267.562L385.3 266.744L382.029 265.108L380.393 260.2V256.929L375.485 258.565L351.766 259.383L345.223 260.2L337.044 258.565L334.59 255.293V253.657H332.954L332.136 264.29V270.015V270.833H332.954V274.923L335.408 274.105L338.68 277.376L346.041 279.83L351.766 281.466L353.402 275.741L355.856 274.105H366.488L368.942 276.558L368.124 280.648L365.67 283.102L355.038 286.373H353.402L354.22 290.463L363.217 287.191L371.396 284.738H378.757L385.3 288.827L386.936 295.37L385.3 303.549L383.664 307.639L382.029 325.633L377.939 329.722L383.664 334.63L386.118 337.083L390.208 339.537L391.025 344.445L387.754 346.08H377.121L373.85 344.445L371.396 341.173L368.124 340.355L365.67 338.719L364.853 343.627L362.399 349.352H360.763L361.581 355.077L359.945 367.346L355.856 369.8L349.312 368.982L346.041 367.346L347.677 364.074L345.223 365.71H339.498L336.226 360.803H333.772L325.593 350.988L326.411 346.898L335.408 337.901L341.951 329.722L344.405 326.451L349.312 325.633L350.948 319.907L345.223 321.543L292.877 320.725L286.334 315.818L284.698 309.275L281.426 306.003H283.88L285.516 304.367L292.877 305.185L296.967 307.639L300.238 306.821L301.874 304.367V299.46H300.238V296.188H285.516L279.791 294.552L280.608 292.099H282.244L283.062 288.827L288.787 285.555L290.423 284.738V275.741L294.513 258.565L297.784 253.657L301.874 249.568L305.963 252.839L310.053 259.383L317.414 266.744L319.05 274.105L323.139 271.651L324.775 266.744V248.75L326.411 242.207L327.229 241.389Z" fill="#137E4E"/>
<path d="M420.47 315H426.195L432.739 318.272L435.192 321.543L436.01 328.904L431.103 360.803L425.377 387.793L416.381 418.874L409.837 438.504L402.476 455.68L393.479 475.309L386.936 487.578L378.757 501.482L367.306 518.658L361.581 526.019L354.22 535.016L345.223 545.649L337.862 553.01L336.226 555.464H334.59V557.1L324.775 566.915L318.232 572.64L312.507 577.547L306.781 578.365L299.42 575.911L296.967 573.458L296.149 571.822V565.279L299.42 560.371L309.235 550.556L315.778 544.831L326.411 534.198L332.136 527.655L338.68 519.476L346.859 508.843L355.038 496.575L364.035 481.852L371.396 468.766L381.211 448.318L390.208 426.235L399.205 399.244L405.748 373.889L412.291 337.083L413.927 322.361L416.381 317.454L420.47 315Z" fill="#09A892"/>
<path d="M251.164 153.873H267.522L273.247 154.691L275.701 166.141L274.883 200.493L274.065 203.765L275.701 207.037L282.244 208.672L292.059 214.398L299.42 219.305L303.51 220.941L302.692 226.666L298.602 238.117L296.149 248.75L293.695 250.386L276.519 243.024V238.117L277.337 236.481H275.701L274.883 238.935L274.065 234.027L266.704 232.392L272.429 234.845L273.247 235.663V240.571L270.794 243.024L260.979 246.296H256.889V227.484L256.071 245.478H255.253L254.435 225.848L249.528 225.031L239.713 220.941L232.352 218.487L230.716 217.669L229.898 243.842L229.08 245.478H206.997V199.675L208.633 196.404L207.815 192.314L206.997 176.774L211.087 169.413L215.176 166.959L238.895 157.144L251.164 153.873Z" fill="#95222D"/>
<path d="M267.522 153.873H278.155L279.791 154.691L282.244 171.867H297.784L303.51 180.046L304.328 181.682L307.599 180.864L313.325 175.138L317.414 168.595L325.593 171.049L335.408 174.32L357.491 175.138L360.763 179.228L370.578 199.675L377.121 209.49L387.754 222.577L393.479 233.21V238.935L391.843 240.571L381.211 241.389L374.667 239.753H332.954L328.865 235.663L324.775 227.484L320.686 226.666V253.657L319.05 263.472L314.96 262.654L313.325 259.383V225.848L305.963 225.031L304.328 223.395V220.941L296.149 218.487L292.877 216.034L285.516 211.126L277.337 207.855L273.247 208.672V195.586H274.065L274.883 164.506L273.247 154.691H267.522V153.873ZM326.411 187.407L325.593 201.311H367.306L365.67 196.404L361.581 188.225L360.763 187.407H326.411Z" fill="#2C3533"/>
<path d="M229.08 297.824H234.806L241.349 301.913L242.985 306.003V313.364L234.806 332.176L228.263 343.627L220.084 355.895L209.451 368.982L199.636 378.796L188.185 387.793L178.37 394.337L162.83 402.516L148.108 409.059L134.204 413.148L113.756 417.238L106.395 416.42L101.487 410.695L100.669 409.059V402.516L103.941 396.79L108.031 395.155L130.114 390.247L146.472 384.522L160.377 377.979L170.191 371.435L178.37 364.892L186.549 357.531L197.182 346.898L206.179 334.63L215.176 319.089L222.537 301.913L226.627 298.642L229.08 297.824Z" fill="#09A892"/>
<path d="M248.71 355.895H256.889L260.979 358.349L263.432 363.256V368.982L259.343 377.161L247.892 392.701L239.713 401.698L233.988 408.241L228.263 413.966L216.812 422.963L206.179 431.142L194.728 438.504L180.824 445.865L160.376 454.044L140.747 459.769L130.114 462.223L124.389 461.405L120.299 458.951L117.845 454.862L117.028 448.318L119.481 443.411L123.571 440.139L148.108 433.596L165.284 427.053L178.37 420.51L189.821 413.966L201.272 405.787L210.269 398.426L223.355 386.158L232.352 375.525L243.803 359.167L248.71 355.895Z" fill="#09A892"/>
<path d="M336.226 454.044L343.587 454.862L347.677 458.133L350.13 463.041L349.312 469.584L344.405 478.581L334.59 493.303L327.229 503.118L317.414 514.569L299.42 532.563L290.423 539.924L279.791 548.103L265.068 557.918L242.167 570.186L235.624 572.64L229.898 571.822L223.355 566.097L221.719 560.371L224.173 554.646L228.263 551.374L249.528 539.924L253.618 536.652L266.704 528.473L277.337 520.294L289.605 509.661L300.238 499.028L305.963 492.485L314.143 482.67L322.322 470.402L329.683 458.133L333.772 454.862L336.226 454.044Z" fill="#09A892"/>
<path d="M266.704 405.787L274.065 406.605L279.791 411.513L280.608 413.148V421.328L273.247 431.96L264.25 442.593L251.164 455.68L243.803 461.405L234.806 468.766L217.63 480.217L198.818 490.031L183.278 496.575L166.102 502.3L153.015 505.572L148.926 504.754L143.201 500.664L141.565 497.393V490.031L145.654 484.306L152.197 481.852L164.466 478.581L180.006 472.855L198.818 463.859L213.54 454.862L228.263 444.229L240.531 433.596L248.71 425.417L256.071 416.42L261.797 409.059L266.704 405.787Z" fill="#09A892"/>
<path d="M332.954 253.657H334.59L337.044 257.747L346.041 259.382L355.856 258.565L375.485 257.747L380.393 256.929L382.846 265.108L389.39 267.561L388.572 270.015L380.393 273.287H377.939L379.575 275.741L385.3 274.923L399.205 275.741L400.84 272.469L401.658 269.197L404.93 270.015L408.201 276.558L409.837 277.376L408.201 280.648L405.748 283.102L404.93 287.191L409.019 288.827L411.473 289.645L415.563 287.191H418.016L416.381 290.463L409.019 297.006L405.748 301.096H404.112L402.476 304.367L391.843 314.182L389.39 318.272L390.208 326.451L393.479 343.627L394.297 350.17V363.256L389.39 369.8L381.211 376.343L377.939 380.432L376.303 383.704L374.667 391.065L371.396 397.608L368.124 403.334L364.853 404.151L355.038 403.334L347.677 398.426L341.951 395.155L341.133 392.701V383.704L344.405 377.161L348.494 373.889L357.491 371.435H361.581L362.399 372.253H380.393L384.482 368.164L386.118 363.256V358.349L382.846 355.077L368.942 353.441H364.035H361.581L362.399 346.08L364.853 341.991L365.67 338.719L372.214 339.537L374.667 344.444L377.121 345.262H387.754L390.208 344.444L389.39 339.537L385.3 337.083V335.448L381.211 333.812L377.121 328.904L381.211 325.633L382.846 307.639L385.3 301.096L386.118 294.552L384.482 288.827L378.757 285.555H371.396L359.945 288.827L353.402 291.281V286.373L363.217 283.102H365.67L366.488 280.648H368.124V274.923H355.856L353.402 277.376L351.766 281.466L346.041 280.648L338.68 278.194L335.408 275.741L332.954 274.923L332.136 271.651L330.501 272.469L331.318 270.015V260.2L332.954 253.657Z" fill="#2E443B"/>
<path d="M289.605 446.683L296.149 447.501L300.238 449.954L302.692 452.408L303.51 454.862V460.587L297.784 469.584L287.152 481.853L271.611 497.393L260.161 506.39L249.528 513.751L234.806 522.748L217.63 531.745L190.639 541.56L187.367 542.377H181.642L175.917 539.924L172.645 535.834L171.827 529.291L175.099 524.384L178.37 521.93L202.908 512.933L216.812 506.39L235.624 495.757L246.256 487.578L257.707 478.581L260.161 477.763V476.127L266.704 470.402L277.337 458.951L284.698 449.954L289.605 446.683Z" fill="#09A892"/>
<path d="M182.46 286.373H191.457L196.364 289.645L198.818 294.552L198 301.913L191.457 315L183.278 328.086L175.099 338.719L165.284 347.716L153.833 355.895L145.654 360.803L129.296 367.346L107.213 371.435H97.3979L91.6725 366.528L90.0367 359.167L93.3083 352.624L96.58 350.17L113.756 347.716L128.478 343.627L142.383 336.265L155.469 325.633L163.648 316.636L169.373 307.639L174.281 297.824L177.552 290.463L182.46 286.373Z" fill="#09A892"/>
<path d="M206.179 177.592H206.997L208.633 195.586L209.451 199.675H207.815L206.997 245.478H229.08L229.898 216.033L231.534 217.669V245.478L228.263 246.296V247.932H224.991L226.627 250.385L228.263 256.929L230.716 252.021H232.352L234.806 256.111L238.895 258.564L241.349 262.654L242.167 265.926L240.531 269.197L228.263 270.833L226.627 274.923L224.991 277.376H212.722L207.815 273.287L204.543 271.651L197.182 266.743L196.364 265.108V250.385L198 247.932H206.179H206.997L178.37 246.296V250.385H177.552V234.845L180.824 205.401L182.46 198.04L185.732 193.95L197.182 184.953L204.543 178.41L206.179 177.592Z" fill="#127F4E"/>
<path d="M301.874 249.568L305.963 252.839L310.871 260.2L313.325 264.29L316.596 268.379V282.284L314.96 284.738L320.686 283.92L333.772 280.648L343.587 279.83L349.312 283.92L350.13 285.555V294.552L347.677 297.006L345.223 296.188V294.552L340.315 292.917H328.047L324.775 296.188L319.05 297.006L315.778 295.37V303.549L320.686 301.914H327.229L328.047 300.278L329.683 301.914L331.318 297.006L337.044 297.824L338.68 299.46L337.862 303.549L341.951 302.731L346.859 301.914L349.312 309.275V316.636L347.677 320.725L345.223 321.543L292.877 320.725L286.334 315.818L284.698 309.275L281.426 306.003H283.88L285.516 304.367L292.877 305.185L296.967 307.639L300.238 306.821L301.874 304.367V299.46H300.238V296.188H285.516L279.791 294.552L280.608 292.099H282.244L283.062 288.827L288.787 285.555L290.423 284.738V275.741L294.513 258.565L297.784 253.657L301.874 249.568Z" fill="#09A791"/>
<path d="M332.136 213.58H380.393L389.39 225.03L393.479 233.209V238.935L391.843 240.571L381.211 241.388L374.667 239.753H332.954L328.865 235.663L324.775 227.484L320.686 226.666V253.657L319.05 263.472L314.96 262.654L313.325 259.382V224.212L314.142 223.395H319.05L319.868 224.212H323.957L324.775 215.216L325.593 214.398L332.136 213.58Z" fill="#9A1E2C"/>
<path d="M337.044 241.389H373.032L377.939 243.024L380.393 246.296L381.211 248.75L382.846 249.568V247.932L391.025 248.75L395.933 251.203L404.112 252.021L413.109 250.386L415.563 251.203L414.745 256.111L413.109 262.654L412.291 265.108L425.377 269.197L428.649 270.833L427.831 278.194L422.106 284.738L418.016 288.009H415.563L411.473 290.463L404.93 287.191V283.102L409.837 277.376L406.566 275.741L404.112 270.015H401.658V274.105L399.205 276.558H392.661L385.3 275.741L378.757 276.558L377.939 273.287L388.572 269.197L389.39 267.562L385.3 266.744L382.029 265.108L380.393 260.2V256.929L375.485 258.565L351.766 259.383L345.223 260.2L337.044 258.565L335.408 256.111L334.59 247.114L337.044 241.389Z" fill="#09A791"/>
<path d="M249.528 158.78H272.429L273.247 159.598V208.672L269.976 211.944L260.161 219.305L255.253 222.577H248.71L242.167 219.305V165.323L242.985 160.416L249.528 158.78Z" fill="#FDDB35"/>
<path d="M317.414 168.595L325.593 171.049L335.408 174.32L357.491 175.138L360.763 179.228L370.578 199.675L377.121 209.49L379.575 213.58L377.121 214.398H332.136L325.593 215.216L324.775 224.213L323.957 225.03H319.868V221.759L321.504 220.941L322.322 200.493V193.132L320.686 187.407V180.864L319.05 176.774H316.596V178.41L312.507 179.228V175.956L317.414 168.595ZM326.411 187.407L325.593 201.311H367.306L365.67 196.404L361.581 188.225L360.763 187.407H326.411Z" fill="#16252F"/>
<path d="M365.67 338.719L372.214 339.537L374.667 344.445L391.025 347.716L394.297 350.17V363.256L389.39 369.8L381.211 376.343L377.939 380.432L376.303 383.704L374.667 391.065L371.396 397.608L368.124 403.334L364.853 404.152L355.038 403.334L347.677 398.426L341.951 395.155L341.133 392.701V383.704L344.405 377.161L348.494 373.889L357.491 371.435H361.581L362.399 372.253H380.393L384.482 368.164L386.118 363.256V358.349L382.846 355.077L368.942 353.442H364.035H361.581L362.399 346.08L364.853 341.991L365.67 338.719Z" fill="#981F2C"/>
<path d="M319.05 321.543H330.501L337.862 322.361L340.315 324.815L339.498 329.722L333.772 337.901L326.411 346.08L322.322 350.988L310.871 356.713L302.692 355.077L290.423 350.17L291.241 343.627L292.059 339.537V332.176L289.605 327.269V325.633L296.149 323.179L308.417 322.361L319.05 321.543Z" fill="#9A1E2C"/>
<path d="M336.226 391.065L339.498 392.701L340.315 400.062L346.041 398.426L350.948 399.244L354.22 402.516L355.038 407.423L346.859 414.784L339.498 419.692L335.408 421.327L323.957 431.142L320.686 433.596H314.96V431.96L311.689 431.142L310.871 427.053L311.689 424.599H310.053L309.235 422.963V411.513L313.325 403.334L316.596 400.062L318.232 399.244L328.047 398.426L332.136 395.972L336.226 391.065Z" fill="#167D4D"/>
<path d="M229.898 216.034L231.534 217.669V245.478L228.263 246.296V247.932H224.991L226.627 250.386L228.263 256.929L230.716 252.021H232.352L234.806 256.111L238.895 258.565L241.349 262.654L242.167 265.926L240.531 269.197L228.263 270.833L226.627 274.923L224.991 277.376H212.722L207.815 273.287L204.543 271.651L197.182 266.744L196.364 265.108V250.386L198 247.932H206.179H206.997V246.296L209.451 245.478H229.08L229.898 216.034Z" fill="#147F4D"/>
<path d="M343.587 328.086H347.677L353.402 332.994H363.217L364.035 337.083L361.581 349.352L360.763 364.074L359.127 368.164L355.856 369.799L349.312 368.982L346.041 367.346L347.677 364.074L345.223 365.71H339.498L336.226 360.802H333.772L325.593 350.988L326.411 346.898L335.408 337.901L341.951 329.722L343.587 328.086Z" fill="#09A891"/>
<path d="M178.37 246.296H195.546L206.997 247.114L208.633 247.932V270.833H207.815V248.75H198L197.182 250.386V265.108L200.454 268.379L206.997 272.469L211.087 274.923V276.559L224.991 277.376L226.627 274.105L228.263 270.015L233.17 269.197H240.531V265.926H242.167L238.077 258.565L233.17 255.293L232.352 252.021H230.716L229.898 255.293H229.08V249.568L229.898 248.75H251.982L253.618 252.021L252.8 265.926L251.164 269.197L256.889 270.015V270.833L247.892 272.469L229.898 278.194L217.63 279.83H211.904L205.361 277.376L191.457 267.562L183.278 261.836L178.37 253.657V246.296Z" fill="#127F4E"/>
<path d="M894.855 145.694L903.034 146.512L908.759 149.783L912.031 153.873L912.848 156.327V167.777L909.577 172.685L905.487 175.956L901.398 177.592H891.583L884.222 174.32L880.132 169.413L878.496 164.506V157.962L880.95 152.237L886.676 147.33L894.855 145.694Z" fill="#15262F"/>
<path d="M598.773 326.45H630.671L632.307 328.086L636.397 338.719L644.576 358.349L655.209 383.704L667.477 413.148L680.564 445.047L685.471 456.497V457.315H653.573L648.665 446.682L643.758 431.96H586.505L579.143 451.59L576.69 457.315H546.427L547.245 453.226L555.424 432.778L564.421 409.877L573.418 387.793L581.597 366.528L593.048 338.719L597.137 327.268L598.773 326.45ZM613.495 356.713L610.224 364.074L600.409 391.065L594.684 406.605V409.059H634.761L632.307 400.88L620.039 369.799L615.131 357.531L613.495 356.713Z" fill="#15242E"/>
<path d="M547.245 156.326L579.961 157.144L591.412 186.589L597.955 202.947L605.316 222.577L616.767 252.839L619.221 257.747L629.854 226.666L634.761 214.398L641.304 194.768L648.665 175.138L654.391 157.962L655.209 157.144H685.471L683.017 165.323L669.931 198.858L660.934 222.577L648.665 255.293L636.397 287.191L635.579 288.009H600.409L596.319 278.194L588.14 257.747L581.597 242.206L573.418 222.577L550.517 165.323L547.245 157.962V156.326Z" fill="#15242E"/>
<path d="M725.548 187.407H735.363L746.814 189.043L757.447 193.132L767.261 200.493L773.805 209.49L777.894 219.305L779.53 230.756V245.478L778.712 246.296H709.19L710.826 254.475L714.098 261.018L719.823 265.926L726.366 268.379L731.274 269.197H737.817L748.45 265.926L754.993 261.836L758.265 258.564L762.354 260.2L772.169 268.379L776.258 271.651L774.623 274.923L767.261 281.466L757.447 287.191L743.542 291.281L736.181 292.099H725.548L716.551 290.463L703.465 285.555L695.286 279.83L689.561 274.105L684.653 265.926L680.564 255.293L678.928 247.932V229.938L682.199 217.669L687.107 207.854L694.468 199.675L701.011 194.768L709.19 190.678L719.005 188.225L725.548 187.407ZM725.548 207.854L717.369 211.126L712.462 217.669L709.19 225.848V228.302H750.085L750.903 226.666L748.45 218.487L745.178 213.58L741.089 210.308L734.545 207.854H725.548Z" fill="#15242E"/>
<path d="M1046.98 359.167H1067.43L1076.43 361.621L1082.97 364.892L1090.33 370.618L1096.06 379.614L1098.51 387.794L1099.33 398.426L1100.15 439.321L1111.6 440.139L1112.42 440.957V456.497L1108.33 458.951L1105.06 459.769L1091.15 460.587L1083.79 458.951L1078.88 455.68L1075.61 451.59L1073.16 447.501L1066.61 452.408L1062.52 455.68L1055.16 458.951L1045.35 460.587H1037.17L1027.36 458.951L1018.36 454.044L1012.63 448.318L1008.54 439.321L1007.73 435.232V428.689L1011 418.056L1014.27 413.149L1019.18 409.059L1028.99 404.152L1043.71 400.88L1069.89 399.244V393.519L1066.61 385.34L1062.52 382.068L1057.62 380.432H1049.44L1041.26 382.886L1028.17 390.247L1024.08 393.519L1020.81 389.429L1011 376.343L1015.09 372.253L1028.99 364.074L1042.08 359.985L1046.98 359.167ZM1048.62 416.42L1040.44 420.51L1037.99 422.963L1036.35 430.325L1039.62 436.868L1046.17 440.139H1056.8L1063.34 436.868L1069.07 430.325L1071.52 422.963L1070.7 417.238L1069.89 416.42H1048.62Z" fill="#15242E"/>
<path d="M1004.45 189.861H1033.9L1050.26 229.12L1060.07 254.475L1061.71 256.111L1070.7 223.395L1080.52 190.679L1081.34 189.861H1109.15L1109.96 191.496L1102.6 211.126L1088.7 248.75L1079.7 273.287L1068.25 303.549L1061.71 315.818L1054.35 323.179L1047.8 326.451L1042.9 328.086L1037.17 328.904H1022.45L1014.27 327.269L1013.45 324.815L1016.72 304.367L1028.17 305.185L1036.35 302.731L1040.44 298.642L1043.71 292.099L1044.53 286.373L1040.44 274.923L1033.9 261.018L1021.63 234.027L1007.73 202.947L1003.64 192.314L1004.45 189.861Z" fill="#15242E"/>
<path d="M973.373 148.965H981.552L993.821 150.601L997.91 152.237L998.728 156.327L996.275 173.503L988.096 171.867H977.463L973.373 174.32L971.737 178.41L970.92 189.861H995.457L996.275 211.126L995.457 211.944H970.92V287.191L970.102 288.009H942.293L941.475 287.191L940.657 211.944L925.117 211.126V189.861H939.839L940.657 176.774L943.111 166.959L948.018 158.78L954.561 153.873L962.741 150.601L973.373 148.965Z" fill="#15242E"/>
<path d="M944.747 358.349H966.012L976.645 360.803L984.824 364.892L993.003 371.435L998.728 377.979L997.093 381.25L984.006 391.883L980.734 394.337L977.463 393.519L972.555 386.976L968.466 383.704L961.923 381.25H950.472L942.293 385.34L937.386 391.065L934.932 396.79L933.296 404.969V413.148L935.75 423.781L940.657 431.142L947.2 435.232L951.29 436.868H961.923L971.738 432.778L975.009 431.142V429.507L977.463 427.053L979.099 424.599L983.188 426.235L995.457 432.778L1000.36 436.05L999.546 439.321L990.549 449.136L982.37 454.862L974.191 458.133L961.105 460.587H950.472L938.203 458.951L925.117 453.226L916.938 446.683L912.031 440.957L907.941 434.414L904.669 426.235L903.034 417.238V401.698L906.305 386.976L910.395 379.614L917.756 371.435L923.481 366.528L936.568 359.985L944.747 358.349Z" fill="#15242E"/>
<path d="M726.366 321.543H749.268L758.264 323.179V331.358L755.811 344.445L753.357 345.262L746.814 343.627H736.181L732.909 346.898L731.274 350.988V360.803L755.811 361.621V382.886H730.456V457.315H702.647L701.829 453.226V382.068L698.557 382.886H686.289L685.471 382.068V361.621L700.193 360.803L701.829 341.991L705.101 334.63L710.826 328.086L720.641 323.179L726.366 321.543Z" fill="#15242E"/>
<path d="M852.324 187.407H863.774L864.592 188.225V198.857L862.956 216.033H844.962L836.783 218.487L830.24 224.212L826.968 232.392L826.151 288.009H798.342L797.524 224.212L796.706 190.678H822.061L823.697 202.947V205.401L835.148 193.95L840.873 190.678L847.416 188.225L852.324 187.407Z" fill="#15242E"/>
<path d="M823.697 358.349H839.237L840.055 359.985L838.419 386.158H819.607L812.246 388.611L807.339 392.701L804.885 396.79L804.067 400.062L803.249 446.683L802.431 456.497L801.613 457.315H773.805V361.62H797.524L798.342 362.438L799.978 377.979L805.703 370.617L812.246 364.892L819.607 359.985L823.697 358.349Z" fill="#15242E"/>
<path d="M881.768 189.861H908.759L909.577 190.679L910.395 287.191L909.577 288.009H881.768L880.95 287.191V190.679L881.768 189.861Z" fill="#15242E"/>
<path d="M855.595 361.62H883.404L884.222 362.438V457.315H855.595L854.777 380.432V362.438L855.595 361.62Z" fill="#15242E"/>
<path d="M865.41 319.907H874.407L881.768 323.179L885.858 328.087L887.493 333.812L886.675 340.355L883.404 346.08L879.314 349.352L875.225 350.988L868.682 351.806L861.32 350.17L854.777 344.445L852.323 337.901L853.141 329.722L856.413 324.815L860.503 321.543L865.41 319.907Z" fill="#15242E"/>
<path d="M276.519 209.49L280.608 210.308L285.516 212.762L286.334 216.033V222.577L288.787 223.395L289.605 217.669L290.423 216.033L295.331 216.851L303.51 220.941L302.692 226.666L298.602 238.117L296.149 248.75L293.695 250.385L276.519 243.024V238.117L279.791 234.845L280.608 231.574L273.247 230.756L265.886 225.848L260.161 225.03L261.797 221.759L274.883 211.126L276.519 209.49Z" fill="#FDDB35"/>
<path d="M207.815 197.222L209.451 199.675L211.087 204.583L229.08 214.398L229.898 216.034V243.842L229.08 245.478H206.997V199.675L207.815 197.222Z" fill="#FDDB35"/>
<path d="M393.479 235.663H394.297L397.569 246.296H406.566L418.834 244.66L431.103 245.478L431.921 246.296L431.103 259.382L428.649 270.833L425.377 270.015L412.291 265.926L411.473 264.29L413.109 261.018L415.563 251.203L407.384 252.021L401.658 252.839L394.297 251.203L391.025 249.568L382.846 247.932V249.568L380.393 248.75L377.939 243.842L373.032 242.206H337.044L335.408 243.842L333.772 240.571L334.59 238.935H374.667L383.664 240.571L391.843 239.753L393.479 235.663Z" fill="#2B4B3E"/>
<path d="M293.695 365.71H300.238L306.781 368.164L310.053 369.799V371.435L306.781 373.071L309.235 376.343L312.507 375.525L314.142 371.435L317.414 372.253L321.504 376.343L325.593 381.25L328.865 388.611V393.519L324.775 397.608L320.686 395.972L319.05 392.701L315.778 393.519L312.507 395.972L310.871 400.062H305.963L303.51 398.426L302.692 392.701L301.874 391.883V386.158L303.51 382.068L296.149 380.432L292.059 375.525L291.241 369.799L293.695 365.71Z" fill="#12804F"/>
<path d="M305.146 224.213H310.871L314.142 225.031V259.383L315.778 262.654L319.05 263.472L319.868 253.657L320.686 226.666H324.775L327.229 229.938L329.683 235.663L334.59 240.571L335.408 244.66L333.772 246.296L328.865 242.207H327.229L325.593 248.75V269.197H323.957V272.469L319.05 274.923L317.414 270.833L316.596 265.108L313.325 263.472L309.235 256.929L306.781 252.839V251.203L303.51 249.568L298.602 250.386L299.42 241.389L304.328 225.031L305.146 224.213Z" fill="#2E433A"/>
<path d="M387.754 286.373L401.658 287.191L407.384 292.099V293.734H409.019L408.201 298.642L405.748 301.096H404.112L402.476 304.367L391.843 314.182L389.39 318.272L390.208 326.451L393.479 343.627V350.17L387.754 347.716L384.482 346.08L390.208 344.444L389.39 339.537L385.3 337.083V335.448L381.211 333.812L377.121 328.904L381.211 325.633L382.846 309.275L386.118 302.731L387.754 292.917V286.373Z" fill="#2B3533"/>
<path d="M380.393 255.293L384.482 263.472L394.297 265.926L407.384 264.29L412.291 260.2L413.927 258.565L413.109 262.654L412.291 265.108L425.377 269.197L428.649 270.833L427.831 278.194L422.106 284.738L418.016 288.009H415.563L411.473 290.463L404.93 287.191V283.102L409.837 277.376L406.566 275.741L404.112 270.015H401.658V274.105L399.205 276.558H392.661L385.3 275.741L378.757 276.558L377.939 273.287L388.572 269.197L389.39 267.562L385.3 266.744L382.029 265.108L379.575 256.111L380.393 255.293Z" fill="#137F4E"/>
<path d="M324.775 348.534L327.229 351.806L334.59 360.802H337.044L339.498 364.892H345.223L348.494 363.256L347.677 366.528L346.859 367.346L351.766 368.982L358.309 368.164L359.945 364.074L360.763 349.352H361.581L362.399 353.441L364.035 352.623L376.303 353.441L384.482 355.077L386.936 358.349L386.118 366.528L382.846 371.435L380.393 373.071H362.399L361.581 372.253H350.13L340.315 371.435L336.226 368.982L330.501 359.985L324.775 352.623V348.534Z" fill="#19814D"/>
<path d="M297.784 218.487L302.692 219.305L305.963 222.577L303.51 229.938L299.42 245.478V249.568L303.51 248.75L307.599 252.839L310.871 258.564L310.053 260.2L303.51 251.203L300.238 250.385L298.602 253.657L295.331 258.564L291.241 275.74V284.737L283.062 289.645L282.244 292.099L279.791 294.552L285.516 295.37L300.238 296.188V299.46H301.874L302.692 304.367L299.42 308.457L296.149 307.639L291.241 306.003L285.516 305.185L283.062 307.639L285.516 310.092L287.152 315.818L292.877 319.907L315.778 320.725V321.543L307.599 322.361L305.146 323.179L296.149 323.997L288.787 325.633L280.608 313.364L276.519 309.275V293.734L277.337 289.645L281.426 288.009L287.152 283.92L293.695 257.747L296.149 252.839L287.152 248.75L283.88 247.114L286.334 246.296L294.513 249.568L296.967 242.206L299.42 232.392L303.51 220.941L297.784 219.305V218.487Z" fill="#1C844F"/>
<path d="M355.856 403.333H367.306L364.853 410.695L359.127 419.692L352.584 427.053L346.041 432.778L337.862 439.321L331.318 441.775H317.414L314.96 439.321L315.778 436.868L323.139 435.232H328.047L329.683 430.324L332.136 429.506V427.053L337.862 423.781L343.587 422.963L344.405 420.509H346.041L347.677 416.42L354.22 410.695L355.856 407.423V403.333Z" fill="#2B3733"/>
<path d="M401.658 269.197L404.93 270.015L408.201 276.558L409.837 277.376L408.201 280.648L405.748 283.102L404.93 287.191L409.019 288.827L411.473 289.645L415.563 287.191H418.016L416.381 290.463L409.837 296.188L409.019 293.734H407.384L401.658 288.009L388.572 287.191V294.552L386.936 302.731L383.664 309.275L382.846 307.639L385.3 301.096L386.118 294.552L384.482 288.827L378.757 285.555H371.396L359.945 288.827L353.402 291.281V286.373L368.124 281.466L371.396 277.376L374.667 274.105V278.194L399.205 275.74L400.84 272.469L401.658 269.197Z" fill="#2E3533"/>
<path d="M274.065 203.765L275.701 207.037L282.244 208.672L292.059 214.398L294.513 216.034H290.423L288.787 223.395L285.516 222.577V215.216L284.698 212.762L278.973 210.308L275.701 211.126L269.158 216.851L260.979 223.395L260.161 225.031H265.886L273.247 229.938L280.608 231.574L279.79 235.663L275.701 236.481L274.883 238.935L274.065 234.027L266.704 232.392L272.429 234.845L273.247 235.663V240.571L270.794 243.024L260.979 246.296H256.889V227.484L256.071 245.478H255.253L254.435 225.848L249.528 225.031L247.892 224.213V222.577L246.256 221.759H255.253L264.25 215.216L269.976 211.126H271.611L272.429 208.672H274.065V203.765Z" fill="#723B36"/>
<path d="M327.229 241.389L330.501 242.207L333.772 245.478L335.408 244.66V255.293L334.59 253.657H332.954L332.136 264.29V270.015V270.833H332.954V274.923L335.408 274.105L338.68 277.376L343.587 279.012V279.83L322.322 283.92L317.414 285.555L314.96 284.738L315.778 282.284V268.379L310.871 262.654L311.689 260.2L314.96 264.29L317.414 266.744L319.05 274.105L323.139 271.651L324.775 266.744V248.75L326.411 242.207L327.229 241.389Z" fill="#137F4E"/>
<path d="M328.865 364.074L332.954 365.71L335.408 370.617L341.133 373.071H348.494V374.707L344.405 378.796L341.951 383.704L341.133 390.247L339.498 388.611L335.408 389.429L333.772 391.883H330.501L327.229 382.886V378.796L323.957 377.161L321.504 373.889V372.253L319.05 371.435L319.868 367.346L322.322 365.71L328.865 364.074Z" fill="#2C3533"/>
<path d="M178.37 246.296H195.546L206.997 247.114L208.633 247.932V270.833H207.815V248.75H198L197.182 250.386V265.108L202.09 270.015L196.364 270.833L184.096 262.654L178.37 253.657V246.296Z" fill="#97202C"/>
<path d="M271.611 251.203L277.337 252.021L282.244 255.293L284.698 259.382L283.88 265.926L278.973 271.651L274.065 273.287V271.651L267.522 268.379L271.611 272.469L267.522 271.651L263.432 267.561L262.615 261.018L265.068 256.111L271.611 251.203Z" fill="#12AB96"/>
<path d="M419.652 245.478H431.103L431.921 246.296L431.103 259.382L429.467 268.379L422.106 267.561L417.198 265.108L416.381 264.29L417.198 258.564L418.834 252.021L419.652 245.478Z" fill="#97202D"/>
<path d="M354.22 402.516L356.674 404.151L355.856 409.877L351.766 413.966H350.13L349.312 416.42H347.677L346.041 420.51L343.587 422.963L335.408 425.417L332.136 427.053V429.506L330.501 430.324L328.047 435.232L319.05 436.868H315.778L316.596 439.321L314.142 440.139L309.235 436.05L305.963 430.324V428.689H307.599L308.417 414.784H309.235L310.053 424.599H311.689L312.507 431.142L314.96 431.96V433.596L322.322 431.96L332.136 422.963L336.226 419.692L341.951 417.238L349.312 411.513L354.22 407.423V402.516Z" fill="#37423A"/>
<path d="M206.179 177.592H206.997L208.633 193.132L207.815 196.404L206.179 197.222L184.096 198.04L184.914 194.768L198.818 183.317L206.179 177.592Z" fill="#16252F"/>
<path d="M392.661 288.009H402.476L407.384 292.099V293.734H409.019L408.201 298.642L405.748 301.096H404.112L402.476 304.367L391.843 314.182L390.208 316.636L386.936 315.818L385.3 315V310.093L391.025 306.003H392.661L393.479 302.731H395.115V301.096L398.387 300.278V298.642L400.022 297.824L401.658 293.734L392.661 289.645V288.009Z" fill="#15272F"/>
<path d="M316.596 391.883L319.05 392.701L323.139 396.79L328.865 395.155L329.683 393.519L331.319 394.337L330.501 398.426L328.047 399.244L318.232 400.062L314.96 400.88L313.325 404.97L310.053 411.513L308.417 424.599L307.599 428.689H305.963L304.328 411.513L301.874 403.334V400.88H310.053L312.507 395.155L316.596 391.883Z" fill="#2B3835"/>
<path d="M240.531 268.38L247.074 269.197L247.892 272.469L229.898 278.194L217.63 279.83H211.904L205.361 277.376L197.182 271.651L198.818 270.015L204.543 270.833L208.633 273.287L211.087 274.923V276.559L224.991 277.376L226.627 274.105L228.263 270.015L240.531 268.38Z" fill="#293D36"/>
<path d="M257.707 226.666H260.161L262.615 230.756L272.429 234.845L273.247 235.663V240.571L270.794 243.024L260.979 246.296H256.889V228.302L257.707 226.666Z" fill="#FDDB35"/>
<path d="M232.352 217.669L239.713 220.123L249.528 224.213L255.253 225.031V238.935L254.435 246.296L253.618 247.114H245.439L249.528 239.753V229.938H247.892V228.302L242.985 226.666V225.031L237.259 223.395L230.716 221.759V218.487L232.352 217.669Z" fill="#2B3433"/>
<path d="M290.423 350.17L299.42 352.623L305.146 355.077L310.871 355.895L323.139 350.17L322.322 353.441L317.414 357.531H315.778L314.143 360.802L312.507 361.62H306.781L301.056 357.531H292.877L292.059 365.71L287.97 366.528V360.802L290.423 350.17Z" fill="#2B3633"/>
<path d="M297.784 218.487L302.692 219.305L305.963 222.577L303.51 229.938L299.42 245.478V249.568L303.51 248.75L307.599 252.839L310.871 258.564L310.053 260.2L303.51 251.203L300.238 250.385L298.602 253.657L295.331 258.564L291.241 275.74V284.737L285.516 288.009L283.88 287.191L287.152 283.92L293.695 257.747L296.149 252.839L287.152 248.75L283.88 247.114L286.334 246.296L294.513 249.568L296.966 242.206L299.42 232.392L303.51 220.941L297.784 219.305V218.487Z" fill="#177B4C"/>
<path d="M413.109 268.38L418.834 269.197L422.924 271.651L422.106 275.741L419.652 281.466L414.745 285.556L411.473 286.373L408.201 284.738L409.837 280.648L411.473 279.012H414.745V277.376L409.837 276.559L408.201 274.923V270.833L409.837 269.197L413.109 268.38Z" fill="#09A892"/>
<path d="M307.599 228.302L310.871 229.12V230.756L313.325 229.938V247.932L311.689 247.114L305.963 247.932L303.51 243.842V233.209L305.963 229.12L307.599 228.302Z" fill="#137F4E"/>
<path d="M314.96 225.848L318.232 226.666L319.05 227.484V260.2H315.778L314.143 248.75V228.302L314.96 225.848Z" fill="#137F4E"/>
<path d="M349.312 319.907H350.948L350.13 325.633L344.405 327.269L335.408 338.719L326.411 347.716V345.263L334.59 336.266L339.498 328.087V323.179L330.501 322.361H319.05L308.417 323.179L307.599 321.543L315.778 320.725H345.223L349.312 319.907Z" fill="#2C4A3C"/>
<path d="M338.68 247.114H350.948L355.038 248.75L358.309 252.021V253.657L354.22 255.293H340.315L337.044 252.839V248.75L338.68 247.114Z" fill="#FDFDFD"/>
<path d="M328.047 292.099L333.772 292.916L340.315 293.734L344.405 296.188V300.278L341.133 301.095L337.044 297.006L335.408 296.188H330.501L328.047 300.278L327.229 301.913L319.05 303.549H315.778V295.37L322.322 296.188L327.229 294.552L328.047 292.099Z" fill="#137F4E"/>
<path d="M230.716 252.021H232.352L234.806 256.111L238.895 258.565L241.349 262.654L242.167 265.926L239.713 268.379H230.716L229.898 264.29V254.475L230.716 252.021Z" fill="#11A98E"/>
<path d="M274.065 203.765L275.701 207.037L282.244 208.672L292.059 214.398L294.513 216.034H290.423L288.787 223.395L285.516 222.577V215.216L284.698 212.762L278.973 210.308L275.701 211.126L269.158 216.851L264.25 220.941L262.615 220.123L267.522 215.216V212.762L271.611 211.126L272.429 208.672H274.065V203.765Z" fill="#8A2930"/>
<path d="M270.794 256.111H278.155L279.791 257.747L278.973 263.472L277.337 267.561L275.701 269.197L271.611 268.379L267.522 261.836L268.34 257.747L270.794 256.111Z" fill="#193735"/>
<path d="M289.605 172.685H298.602L304.328 181.682L310.053 182.5V184.953L308.417 186.589L301.874 185.771L301.056 183.317L298.602 182.5L297.784 179.228L289.605 176.774L288.787 173.503L289.605 172.685Z" fill="#15262F"/>
<path d="M374.667 331.358L378.757 332.176V333.812H380.393V335.447L385.3 336.265L387.754 338.719V344.444H378.757L376.303 341.991L374.667 331.358Z" fill="#09A892"/>
<path d="M389.39 326.45H390.208L393.479 343.626V350.17L387.754 347.716L384.482 346.08L390.208 344.444L389.39 339.537L385.3 337.083V335.447L381.211 333.812L380.393 332.176L383.664 331.358L384.482 329.722L389.39 328.904V326.45Z" fill="#294F40"/>
<path d="M395.115 278.194L400.022 279.83L401.658 281.466L400.84 284.737L397.569 286.373L386.118 285.555L384.482 283.92V280.648L387.754 279.83L392.661 279.012L395.115 278.194Z" fill="#9B1E2C"/>
<path d="M347.677 425.417H349.312L350.13 428.689L343.587 435.232L337.862 439.321H332.954L333.772 436.05L337.862 431.96L341.133 427.871L347.677 425.417Z" fill="#162830"/>
<path d="M400.022 279.83L407.384 280.648L405.748 283.102L404.93 287.191L409.019 288.827L411.473 289.645L415.563 287.191H418.016L416.381 290.463L409.837 296.188L409.019 293.734H407.384L401.658 288.009L391.843 287.191V286.373L399.205 284.737L400.84 283.92L400.022 279.83Z" fill="#2B413A"/>
<path d="M262.615 225.03L267.522 225.848L273.247 229.938L280.608 231.574L279.791 235.663L275.701 236.481L274.883 238.935L274.065 234.027L265.068 231.574L260.979 229.938L261.797 225.848L262.615 225.03Z" fill="#803032"/>
<path d="M327.229 385.34H328.865L330.501 388.611V391.883H333.772L335.408 388.611L339.498 387.793L342.769 395.155L347.677 397.608L346.041 399.244L340.315 400.88L339.498 400.062L338.68 392.701H335.408L331.318 397.608L330.501 394.337L329.683 395.155L326.411 396.79L328.047 393.519V388.611L327.229 385.34Z" fill="#2E423A"/>
<path d="M198.818 270.015L204.543 270.833L208.633 273.287L211.087 274.923V276.558L224.991 277.376L225.809 274.923L226.627 276.558L225.809 279.012L211.904 279.83L205.361 277.376L197.182 271.651L198.818 270.015Z" fill="#2D4D3F"/>
<path d="M256.889 226.666L257.707 228.302L256.889 246.296L269.158 243.024L272.429 242.206V235.663L262.615 231.574L265.068 230.756L274.065 234.027L275.701 236.481L278.155 235.663L276.519 243.024L274.883 240.571L270.794 244.66L260.161 248.75H256.071L255.253 245.478L256.071 227.484L256.889 226.666Z" fill="#137F4E"/>
<path d="M366.488 247.114H375.485L376.303 247.932V252.839L374.667 254.475H364.853L364.035 251.203L366.488 247.114Z" fill="#FDFDFD"/>
<path d="M314.96 373.889L318.232 375.525L323.957 382.886L324.775 386.975L321.504 387.793L315.778 382.886L312.507 380.432L313.325 376.343L314.96 373.889Z" fill="#09A892"/>
<path d="M270.794 250.385H276.519L283.062 254.475L284.698 256.929L283.88 259.382L280.608 254.475L275.701 252.021L269.976 252.839L265.068 256.929L263.432 261.018L264.25 267.561L269.158 271.651L275.701 272.469L280.608 269.197L283.062 265.926L284.698 263.472L283.88 268.379L279.791 272.469L277.337 274.105H270.794L265.068 271.651L262.615 268.379L261.797 265.926V259.382L265.068 254.475L270.794 250.385Z" fill="#137F4E"/>
<path d="M344.405 349.352H347.677L346.859 356.713L345.223 361.62H341.133L339.498 359.985V355.077L342.769 350.17L344.405 349.352Z" fill="#157A4C"/>
<path d="M373.032 297.006L376.303 298.642L380.393 301.096L379.575 304.367L374.667 307.639L370.578 306.821L368.124 304.367L365.67 303.549L366.488 301.096L372.214 301.913L373.032 298.642V297.006Z" fill="#2D3F38"/>
<path d="M382.846 279.83L386.118 280.648H384.482L386.118 284.737L391.843 285.555L388.572 288.009V294.552L386.936 302.731L383.664 309.275L382.846 307.639L385.3 301.096L386.118 294.552L384.482 288.827L380.393 286.373L382.029 284.737L382.846 279.83Z" fill="#2F443B"/>
<path d="M333.772 292.917L340.315 293.734L344.405 296.188V300.278L341.133 301.096L337.044 297.006L335.408 296.188H330.501L328.047 300.278H324.775L325.593 297.006L329.683 293.734L333.772 292.917Z" fill="#483B37"/>
<path d="M304.328 297.824H309.235L310.871 299.46V301.913H309.235L310.871 306.003L310.053 307.639H303.51L302.692 304.367L303.51 301.913V299.46L304.328 297.824Z" fill="#FDDB35"/>
<path d="M190.639 189.861L192.275 190.679L189.003 194.768L188.185 196.404L195.546 194.768L207.815 193.95V196.404L206.179 197.222L184.096 198.04L184.914 194.768L190.639 189.861Z" fill="#263B36"/>
<path d="M274.883 239.753L275.701 243.024L279.791 243.842L283.88 245.478V247.114L279.791 246.296L278.155 245.478V247.114H280.608V248.75L272.429 247.932V249.568L268.34 248.75L267.522 247.114H269.976L270.794 243.842L274.883 239.753Z" fill="#453634"/>
<path d="M240.531 268.38L247.074 269.197L247.892 272.469L242.985 273.287L238.077 270.833L237.259 272.469L227.445 274.105L228.263 270.015L240.531 268.38Z" fill="#2D463B"/>
<path d="M260.161 155.509H268.34L273.247 157.962L272.429 159.598H249.528L242.985 160.416L243.803 158.78L260.161 155.509Z" fill="#137F4E"/>
<path d="M305.146 224.213H310.871L314.142 225.031L312.507 230.756H310.871L310.053 229.12H305.963L304.328 233.21L302.692 234.027L303.51 227.484L305.146 224.213Z" fill="#2F443B"/>
<path d="M379.575 356.713H383.664V365.71L381.211 369.799L378.757 370.617L377.121 368.982L380.393 362.438L377.939 358.349L379.575 356.713Z" fill="#FDDB35"/>
<path d="M295.331 255.293L296.149 256.929L292.877 270.015L291.241 275.741V284.738L285.516 288.009L283.88 287.191L287.152 283.92L293.695 257.747L295.331 255.293Z" fill="#137F4E"/>
<path d="M296.149 383.704L301.056 385.34V392.701L300.238 395.155H297.784L295.331 390.247L294.513 385.34L296.149 383.704Z" fill="#2A3A35"/>
<path d="M355.856 243.024H364.853L364.035 244.66H362.399L363.217 251.203L359.127 252.021L357.491 250.386L356.674 244.66L355.856 243.024Z" fill="#187149"/>
<path d="M363.217 283.102L365.67 283.92L364.853 287.191L353.402 291.281V286.373L363.217 283.102Z" fill="#2F443B"/>
<path d="M341.133 377.161L344.405 377.979L341.133 386.158L337.044 384.522L334.59 378.796L341.133 377.161Z" fill="#15222E"/>
<path d="M393.479 235.663H394.297L395.115 243.024L393.479 243.842L378.757 243.024L377.939 240.571L391.843 239.753L393.479 235.663Z" fill="#213032"/>
<path d="M229.898 216.034L231.534 217.669V245.478L228.263 246.296L229.08 243.842L229.898 216.034Z" fill="#137E4D"/>
<path d="M308.417 410.695H309.235L308.417 427.053L307.599 428.689H305.963L305.146 420.51V413.149H306.781L308.417 410.695Z" fill="#293C35"/>
<path d="M301.056 391.883L303.51 392.701L304.328 398.426L310.053 399.244V401.698H301.056L298.602 395.155H300.238L299.42 392.701L301.056 391.883Z" fill="#2C483D"/>
<path d="M371.396 360.802H374.667L376.303 363.256L375.485 368.982L373.032 369.799L371.396 368.982L369.76 364.892L367.306 362.438H371.396V360.802Z" fill="#9B1E2C"/>
<path d="M178.37 238.935H180.006L181.642 242.206V244.66L202.09 245.478L204.543 247.114L178.37 246.296V238.935Z" fill="#2F443B"/>
<path d="M400.022 279.83L407.384 280.648L405.748 283.102L404.93 287.191L406.566 288.009L391.843 287.191V286.373L399.205 284.737L400.84 283.92L400.022 279.83Z" fill="#2F443B"/>
<path d="M232.352 258.565L236.442 260.2L238.895 263.472L238.077 265.926H232.352L230.716 263.472L231.534 259.382L232.352 258.565Z" fill="#FDFDFD"/>
<path d="M339.498 407.423L341.133 408.241L343.587 410.695L342.769 413.966L341.133 415.602H337.862L336.226 412.331L335.408 409.059L339.498 407.423Z" fill="#09A892"/>
<path d="M401.658 269.197L404.93 270.015L408.201 276.558L409.837 277.376L408.201 280.648L407.384 277.376H405.748L404.93 274.105L401.658 277.376H396.751L400.84 274.105V270.015L401.658 269.197Z" fill="#2E3F38"/>
<path d="M332.954 253.657H334.59L336.226 260.2V266.744L332.136 265.108L331.318 261.018L332.954 253.657Z" fill="#2C3834"/>
<path d="M385.3 246.296H390.208L397.569 250.386L407.384 251.204L404.112 252.839L395.933 252.021L391.025 249.568L382.846 247.932V249.568L380.393 248.75V247.114L385.3 246.296Z" fill="#137F4E"/>
<path d="M285.516 319.089L289.605 319.907L292.059 321.543L305.146 322.361V323.179L296.149 323.997L288.787 325.633L285.516 320.725V319.089Z" fill="#2C4A3E"/>
<path d="M300.238 368.982L303.51 369.799V374.707L300.238 376.343L296.967 375.525L296.149 373.071L296.967 371.435H298.602V369.799L300.238 368.982Z" fill="#09A892"/>
<path d="M303.51 405.787H310.053L308.417 411.513L305.963 413.966L303.51 408.241V405.787Z" fill="#15272F"/>
<path d="M386.936 337.901L390.208 339.537L391.025 344.444L387.754 346.08H377.121L379.575 344.444H387.754L386.936 337.901Z" fill="#15794C"/>
<path d="M272.429 208.672L273.247 211.126H275.701L269.158 216.852L264.25 220.941L262.615 220.123L267.522 215.216V212.762L271.611 211.126L272.429 208.672Z" fill="#137F4E"/>
<path d="M274.065 203.765L275.701 207.037L282.244 208.672L284.698 210.308V211.944L276.519 210.308L272.429 211.944L274.065 203.765Z" fill="#862C31"/>
<path d="M206.997 193.95L207.815 196.404L206.179 197.222H194.728L195.546 194.768L206.997 193.95Z" fill="#303D37"/>
<path d="M206.997 246.296H209.451V247.932H212.722L210.269 255.293L209.451 262.654H208.633V247.932H206.997V246.296Z" fill="#35443A"/>
<path d="M391.026 341.991H392.661L393.479 343.626V350.17L387.754 347.716L384.482 346.08L390.208 344.444L391.026 341.991Z" fill="#2C493C"/>
<path d="M338.68 332.176V334.63L329.683 344.445L325.593 347.716L327.229 344.445L334.59 336.266L338.68 332.176Z" fill="#1D6947"/>
<path d="M265.068 261.836L268.34 263.472L270.794 269.197H266.704L264.25 266.744V262.654L265.068 261.836Z" fill="#FDFDFD"/>
<path d="M364.853 355.895L370.578 356.713V359.167L368.124 360.803H364.035L363.217 357.531L364.853 355.895Z" fill="#FDDB35"/>
<path d="M368.124 292.099H373.032V295.37L365.67 297.006H364.035L362.399 300.278L363.217 296.188L367.306 293.734L368.124 292.099Z" fill="#09A892"/>
<path d="M389.39 326.45H390.208L391.025 337.083L387.754 336.265L386.936 332.176L389.39 326.45Z" fill="#26473C"/>
<path d="M305.963 261.018L307.599 262.654V268.379L305.146 270.833H304.328V262.654L305.963 261.018Z" fill="#FDFDFD"/>
<path d="M318.232 423.781L321.504 424.599L323.957 427.871L321.504 429.506L318.232 428.689L317.414 424.599L318.232 423.781Z" fill="#FDDB35"/>
<path d="M403.294 274.105H404.93L405.748 277.376H407.384V279.83L400.84 279.012L400.022 277.376L403.294 274.105Z" fill="#15222E"/>
<path d="M283.88 263.472L284.698 266.744L281.426 271.651L277.337 274.105H270.794V272.469H275.701L280.608 269.197L283.062 265.926L283.88 263.472Z" fill="#128151"/>
<path d="M297.784 218.487L302.692 219.305L305.963 222.577L303.51 229.938H301.056L303.51 220.941L297.784 219.305V218.487Z" fill="#1A794C"/>
<path d="M392.661 276.558L400.022 277.376L407.384 279.83L404.93 281.466L395.115 279.012H392.661V276.558Z" fill="#393735"/>
<path d="M329.683 293.734H333.772L329.683 297.006L328.047 300.278H324.775L325.593 297.006L329.683 293.734Z" fill="#2F443B"/>
<path d="M356.674 417.238H359.127L358.309 420.509L354.22 424.599L352.584 420.509L356.674 418.874V417.238Z" fill="#152E32"/>
<path d="M295.331 300.278L299.42 301.095V305.185L296.966 306.003L294.513 303.549L295.331 300.278Z" fill="#2E4139"/>
<path d="M178.37 238.935H180.006L182.46 246.296H178.37V238.935Z" fill="#2E4139"/>
<path d="M278.155 256.929L279.791 257.747L278.973 263.472L277.337 267.562H276.519V260.2H278.155V256.929Z" fill="#205F43"/>
<path d="M285.516 216.034L287.97 218.487L290.423 216.034L288.787 223.395L285.516 222.577V216.034Z" fill="#137F4E"/>
<path d="M394.297 279.83H398.387L399.205 283.92L394.297 283.102V279.83Z" fill="#137F4E"/>
<path d="M244.621 223.395L249.528 224.212L254.435 225.848V228.302L247.074 225.848L244.621 223.395Z" fill="#15222E"/>
<path d="M306.781 219.305L311.689 220.123L313.325 220.941V223.395L306.781 222.577L305.963 220.123L306.781 219.305Z" fill="#15222E"/>
<path d="M206.179 183.317H207.815V189.861L204.543 189.043L203.725 185.771L206.179 183.317Z" fill="#2C3533"/>
<path d="M267.522 153.873H278.155L275.701 156.327L274.883 160.416L273.247 157.144V154.691H267.522V153.873Z" fill="#216144"/>
</svg>
