<svg width="1200" height="720" viewBox="0 0 1200 720" fill="none" xmlns="http://www.w3.org/2000/svg">
<path d="M251.164 198.873H278.155L279.791 199.691L282.244 216.867H297.784L303.51 225.046L304.328 226.682L307.599 225.864L313.325 220.138L317.414 213.595L325.593 216.049L335.408 219.32L357.491 220.138L360.763 224.228L370.578 244.676L377.121 254.49L387.754 267.577L394.297 280.663L397.569 291.296H406.566L418.834 289.66L431.103 290.478L431.921 291.296L431.103 304.383L427.831 323.194L422.106 329.738L415.563 336.281L409.019 342.006L405.748 346.096H404.112L402.476 349.367L391.843 359.182L389.39 363.272L390.208 371.451L393.479 388.627L394.297 395.17V408.256L389.39 414.8L381.211 421.343L377.939 425.432L376.303 428.704L374.667 436.065L371.396 442.608L363.217 458.149L358.309 465.51L352.584 472.053L346.041 477.778L337.862 484.321L331.318 486.775H317.414L310.871 482.686L305.963 475.324L304.328 456.513L300.238 444.244L288.787 422.161L287.152 416.435L287.97 405.803L291.241 388.627L292.059 384.537V377.176L287.97 368.997L279.791 357.546L276.519 354.275V326.466L275.701 323.194L266.704 320.741L256.889 315.833L247.892 317.469L229.898 323.194L217.63 324.83H211.904L205.361 322.376L191.457 312.562L183.278 306.836L178.37 298.657L177.552 295.386V279.845L180.824 250.401L182.46 243.04L185.732 238.95L197.182 229.953L204.543 223.41L207.815 220.138L211.904 213.595L222.537 208.688L241.349 201.327L251.164 198.873ZM326.411 232.407L325.593 246.311H367.306L365.67 241.404L361.581 233.225L360.763 232.407H326.411ZM267.522 313.379L268.34 315.833L274.065 318.287V316.651L269.158 313.379H267.522Z" fill="#2F443B"/>
<path d="M272.429 96.6348H294.513L316.596 99.0885L337.044 103.178L353.402 108.085L366.488 112.993L379.575 119.536L391.025 126.079L404.93 135.894L412.291 141.62L422.106 150.617L426.195 153.888L431.921 160.431L437.646 166.157L449.097 181.697L457.276 194.783L466.273 211.141L474.452 231.589L479.359 246.311L484.267 268.395L485.902 276.574L486.72 285.571V337.099L484.267 366.543L480.995 391.898L474.452 427.068L467.091 456.513L459.729 480.232L454.004 496.59L445.825 516.22L438.464 532.578L431.921 544.846L428.649 551.39L423.742 557.115L420.47 558.751H413.109L407.384 554.661L404.93 549.754L405.748 542.393L415.563 524.399L424.56 505.587L434.374 481.05L443.371 454.059L450.732 426.25L456.458 395.17L459.729 373.086L462.183 345.278L463.819 320.741V293.75L461.365 274.12L457.276 256.944L452.368 240.586L445.007 223.41L435.192 204.598L426.195 191.512L419.652 183.333L409.837 171.882L404.112 166.157L395.115 158.796L385.3 151.434L368.124 140.802L349.312 131.805L334.59 126.897L317.414 122.808L301.056 120.354L291.241 119.536H273.247L254.435 121.99L236.442 126.079L219.266 131.805L193.911 144.073L181.642 152.252L171.009 160.431L160.376 170.246L156.287 174.336L148.108 183.333L137.475 198.873L130.932 209.506L124.389 223.41L117.845 241.404L113.756 258.58L111.302 279.027L110.484 293.75V318.287L108.031 324.012L103.941 327.284L101.487 328.102H95.7621L89.2188 324.012L87.583 320.741V274.938L90.8546 252.037L96.58 229.135L103.123 211.959L112.12 193.965L123.571 175.972L134.204 162.885L153.833 143.255L165.284 134.258L177.552 126.079L186.549 121.172L198.818 114.629L220.083 106.45L242.167 100.724L264.25 97.4527L272.429 96.6348Z" fill="#09A892"/>
<path d="M327.229 286.389L330.501 287.207L333.772 290.478L337.044 286.389H373.032L377.939 288.024L380.393 291.296L381.211 293.75L382.846 294.568V292.932L391.025 293.75L395.933 296.203L404.112 297.021L413.109 295.386L415.563 296.203L414.745 301.111L413.109 307.654L412.291 310.108L425.377 314.197L428.649 315.833L427.831 323.194L422.106 329.738L415.563 336.281L409.019 342.006L405.748 346.096H404.112L402.476 349.367L391.843 359.182L389.39 363.272L390.208 371.451L393.479 388.627L394.297 395.17V408.256L389.39 414.8L381.211 421.343L377.939 425.432L376.303 428.704L374.667 436.065L371.396 442.608L363.217 458.148L358.309 465.51L352.584 472.053L346.041 477.778L337.862 484.321L331.318 486.775H317.414L310.871 482.686L305.963 475.324L304.328 456.513L300.238 444.244L288.787 422.161L287.152 416.435L287.97 405.803L290.423 395.17L299.42 397.624L305.146 400.077L310.871 400.895L322.322 395.17L328.047 388.627L334.59 381.266L339.498 373.086V368.179L330.501 367.361H319.05L308.417 368.179L307.599 366.543L292.877 365.725L286.334 360.818L284.698 354.275L281.426 351.003H283.88L285.516 349.367L292.877 350.185L296.967 352.639L300.238 351.821L301.874 349.367V344.46H300.238V341.188H285.516L279.791 339.552L280.608 337.099H282.244L283.062 333.827L288.787 330.555L290.423 329.738V320.741L294.513 303.565L297.784 298.657L301.874 294.568L305.963 297.839L310.053 304.383L317.414 311.744L319.05 319.105L323.139 316.651L324.775 311.744V293.75L326.411 287.207L327.229 286.389Z" fill="#2E443B"/>
<path d="M269.976 147.345H293.695L312.507 149.798L329.683 153.888L345.223 159.613L358.309 166.157L371.396 174.336L385.3 184.968L393.479 192.329L400.84 200.509L410.655 213.595L417.198 224.228L423.742 237.314L427.831 247.947L432.739 263.487V269.212L430.285 273.302L422.924 276.574L417.198 275.756L413.109 272.484L409.837 263.487L406.566 252.854L400.84 239.768L393.479 227.499L386.118 217.684L377.121 207.87L366.488 198.055L350.13 187.422L337.044 180.879L323.957 175.971L307.599 171.882L287.152 169.428H276.519L254.435 172.7L238.077 177.607L224.991 183.333L215.176 188.24L203.725 196.419L195.546 203.78L189.003 209.505L179.188 220.956L171.827 233.225L165.284 247.129L160.376 264.305L158.741 276.574L157.105 311.743L154.651 325.648L148.108 339.552L142.383 347.731L138.293 352.639L129.296 360L117.845 366.543L107.213 369.815H94.1263L90.0367 366.543L87.583 358.364L89.2188 353.457L94.9442 348.549L105.577 346.913L119.481 338.734L126.842 329.737L131.75 319.105L133.386 310.926L134.204 284.753L136.657 262.669L140.747 245.493L145.654 232.407L153.833 216.867L162.012 204.598L169.373 194.783L175.917 189.058L183.278 181.697L197.182 171.882L214.358 162.067L234.806 153.888L251.164 149.798L269.976 147.345Z" fill="#09A892"/>
<path d="M327.229 286.389L330.501 287.207L333.772 290.478L337.044 286.389H373.032L377.939 288.024L380.393 291.296L381.211 293.75L382.846 294.568V292.932L391.025 293.75L395.933 296.203L404.112 297.021L413.109 295.386L415.563 296.203L414.745 301.111L413.109 307.654L412.291 310.108L425.377 314.197L428.649 315.833L427.831 323.194L422.106 329.738L418.016 333.009H415.563L411.473 335.463L404.93 332.191V328.102L409.837 322.376L406.566 320.741L404.112 315.015H401.658V319.105L399.205 321.558H392.661L385.3 320.741L378.757 321.558L377.939 318.287L388.572 314.197L389.39 312.562L385.3 311.744L382.029 310.108L380.393 305.2V301.929L375.485 303.565L351.766 304.383L345.223 305.2L337.044 303.565L334.59 300.293V298.657H332.954L332.136 309.29V315.015V315.833H332.954V319.923L335.408 319.105L338.68 322.376L346.041 324.83L351.766 326.466L353.402 320.741L355.856 319.105H366.488L368.942 321.558L368.124 325.648L365.67 328.102L355.038 331.373H353.402L354.22 335.463L363.217 332.191L371.396 329.738H378.757L385.3 333.827L386.936 340.37L385.3 348.549L383.664 352.639L382.029 370.633L377.939 374.722L383.664 379.63L386.118 382.083L390.208 384.537L391.025 389.445L387.754 391.08H377.121L373.849 389.445L371.396 386.173L368.124 385.355L365.67 383.719L364.853 388.627L362.399 394.352H360.763L361.581 400.077L359.945 412.346L355.856 414.8L349.312 413.982L346.041 412.346L347.677 409.074L345.223 410.71H339.498L336.226 405.803H333.772L325.593 395.988L326.411 391.898L335.408 382.901L341.951 374.722L344.405 371.451L349.312 370.633L350.948 364.907L345.223 366.543L292.877 365.725L286.334 360.818L284.698 354.275L281.426 351.003H283.88L285.516 349.367L292.877 350.185L296.967 352.639L300.238 351.821L301.874 349.367V344.46H300.238V341.188H285.516L279.791 339.552L280.608 337.099H282.244L283.062 333.827L288.787 330.555L290.423 329.738V320.741L294.513 303.565L297.784 298.657L301.874 294.568L305.963 297.839L310.053 304.383L317.414 311.744L319.05 319.105L323.139 316.651L324.775 311.744V293.75L326.411 287.207L327.229 286.389Z" fill="#137E4E"/>
<path d="M420.47 360H426.195L432.739 363.272L435.192 366.543L436.01 373.904L431.103 405.803L425.377 432.793L416.381 463.874L409.837 483.504L402.476 500.68L393.479 520.309L386.936 532.578L378.757 546.482L367.306 563.658L361.581 571.019L354.22 580.016L345.223 590.649L337.862 598.01L336.226 600.464H334.59V602.1L324.775 611.915L318.232 617.64L312.507 622.547L306.781 623.365L299.42 620.911L296.967 618.458L296.149 616.822V610.279L299.42 605.371L309.235 595.556L315.778 589.831L326.411 579.198L332.136 572.655L338.68 564.476L346.859 553.843L355.038 541.575L364.035 526.852L371.396 513.766L381.211 493.318L390.208 471.235L399.205 444.244L405.748 418.889L412.291 382.083L413.927 367.361L416.381 362.454L420.47 360Z" fill="#09A892"/>
<path d="M251.164 198.873H267.522L273.247 199.691L275.701 211.141L274.883 245.493L274.065 248.765L275.701 252.037L282.244 253.672L292.059 259.398L299.42 264.305L303.51 265.941L302.692 271.666L298.602 283.117L296.149 293.75L293.695 295.386L276.519 288.024V283.117L277.337 281.481H275.701L274.883 283.935L274.065 279.027L266.704 277.392L272.429 279.845L273.247 280.663V285.571L270.794 288.024L260.979 291.296H256.889V272.484L256.071 290.478H255.253L254.435 270.848L249.528 270.031L239.713 265.941L232.352 263.487L230.716 262.669L229.898 288.842L229.08 290.478H206.997V244.676L208.633 241.404L207.815 237.314L206.997 221.774L211.087 214.413L215.176 211.959L238.895 202.144L251.164 198.873Z" fill="#95222D"/>
<path d="M267.522 198.873H278.155L279.791 199.691L282.244 216.867H297.784L303.51 225.046L304.328 226.682L307.599 225.864L313.325 220.138L317.414 213.595L325.593 216.049L335.408 219.32L357.491 220.138L360.763 224.228L370.578 244.676L377.121 254.49L387.754 267.577L393.479 278.21V283.935L391.843 285.571L381.211 286.389L374.667 284.753H332.954L328.865 280.663L324.775 272.484L320.686 271.666V298.657L319.05 308.472L314.96 307.654L313.325 304.383V270.848L305.963 270.031L304.328 268.395V265.941L296.149 263.487L292.877 261.034L285.516 256.126L277.337 252.855L273.247 253.672V240.586H274.065L274.883 209.506L273.247 199.691H267.522V198.873ZM326.411 232.407L325.593 246.311H367.306L365.67 241.404L361.581 233.225L360.763 232.407H326.411Z" fill="#2C3533"/>
<path d="M229.08 342.824H234.806L241.349 346.913L242.985 351.003V358.364L234.806 377.176L228.263 388.627L220.084 400.895L209.451 413.982L199.636 423.796L188.185 432.793L178.37 439.337L162.83 447.516L148.108 454.059L134.204 458.148L113.756 462.238L106.395 461.42L101.487 455.695L100.669 454.059V447.516L103.941 441.79L108.031 440.155L130.114 435.247L146.472 429.522L160.377 422.979L170.191 416.435L178.37 409.892L186.549 402.531L197.182 391.898L206.179 379.63L215.176 364.089L222.537 346.913L226.627 343.642L229.08 342.824Z" fill="#09A892"/>
<path d="M248.71 400.895H256.889L260.979 403.349L263.432 408.256V413.982L259.343 422.161L247.892 437.701L239.713 446.698L233.988 453.241L228.263 458.966L216.812 467.963L206.179 476.142L194.728 483.504L180.824 490.865L160.376 499.044L140.747 504.769L130.114 507.223L124.389 506.405L120.299 503.951L117.845 499.862L117.028 493.318L119.481 488.411L123.571 485.139L148.108 478.596L165.284 472.053L178.37 465.51L189.821 458.966L201.272 450.787L210.269 443.426L223.355 431.158L232.352 420.525L243.803 404.167L248.71 400.895Z" fill="#09A892"/>
<path d="M336.226 499.044L343.587 499.862L347.677 503.133L350.13 508.041L349.312 514.584L344.405 523.581L334.59 538.303L327.229 548.118L317.414 559.569L299.42 577.563L290.423 584.924L279.791 593.103L265.068 602.918L242.167 615.186L235.624 617.64L229.898 616.822L223.355 611.097L221.719 605.371L224.173 599.646L228.263 596.374L249.528 584.924L253.618 581.652L266.704 573.473L277.337 565.294L289.605 554.661L300.238 544.028L305.963 537.485L314.143 527.67L322.322 515.402L329.683 503.133L333.772 499.862L336.226 499.044Z" fill="#09A892"/>
<path d="M266.704 450.787L274.065 451.605L279.791 456.513L280.608 458.148V466.328L273.247 476.96L264.25 487.593L251.164 500.68L243.803 506.405L234.806 513.766L217.63 525.217L198.818 535.031L183.278 541.575L166.102 547.3L153.015 550.572L148.926 549.754L143.201 545.664L141.565 542.393V535.031L145.654 529.306L152.197 526.852L164.466 523.581L180.006 517.856L198.818 508.859L213.54 499.862L228.263 489.229L240.531 478.596L248.71 470.417L256.071 461.42L261.797 454.059L266.704 450.787Z" fill="#09A892"/>
<path d="M332.954 298.657H334.59L337.044 302.747L346.041 304.382L355.856 303.565L375.485 302.747L380.393 301.929L382.846 310.108L389.39 312.561L388.572 315.015L380.393 318.287H377.939L379.575 320.741L385.3 319.923L399.205 320.741L400.84 317.469L401.658 314.197L404.93 315.015L408.201 321.558L409.837 322.376L408.201 325.648L405.748 328.102L404.93 332.191L409.019 333.827L411.473 334.645L415.563 332.191H418.016L416.381 335.463L409.019 342.006L405.748 346.096H404.112L402.476 349.367L391.843 359.182L389.39 363.272L390.208 371.451L393.479 388.627L394.297 395.17V408.256L389.39 414.8L381.211 421.343L377.939 425.432L376.303 428.704L374.667 436.065L371.396 442.608L368.124 448.334L364.853 449.151L355.038 448.334L347.677 443.426L341.951 440.155L341.133 437.701V428.704L344.405 422.161L348.494 418.889L357.491 416.435H361.581L362.399 417.253H380.393L384.482 413.164L386.118 408.256V403.349L382.846 400.077L368.942 398.441H364.035H361.581L362.399 391.08L364.853 386.991L365.67 383.719L372.214 384.537L374.667 389.444L377.121 390.262H387.754L390.208 389.444L389.39 384.537L385.3 382.083V380.448L381.211 378.812L377.121 373.904L381.211 370.633L382.846 352.639L385.3 346.096L386.118 339.552L384.482 333.827L378.757 330.555H371.396L359.945 333.827L353.402 336.281V331.373L363.217 328.102H365.67L366.488 325.648H368.124V319.923H355.856L353.402 322.376L351.766 326.466L346.041 325.648L338.68 323.194L335.408 320.741L332.954 319.923L332.136 316.651L330.501 317.469L331.318 315.015V305.2L332.954 298.657Z" fill="#2E443B"/>
<path d="M289.605 491.683L296.149 492.501L300.238 494.954L302.692 497.408L303.51 499.862V505.587L297.784 514.584L287.152 526.852L271.611 542.393L260.161 551.39L249.528 558.751L234.806 567.748L217.63 576.745L190.639 586.56L187.367 587.377H181.642L175.917 584.924L172.645 580.834L171.827 574.291L175.099 569.384L178.37 566.93L202.908 557.933L216.812 551.39L235.624 540.757L246.256 532.578L257.707 523.581L260.161 522.763V521.127L266.704 515.402L277.337 503.951L284.698 494.954L289.605 491.683Z" fill="#09A892"/>
<path d="M182.46 331.373H191.457L196.364 334.645L198.818 339.552L198 346.913L191.457 360L183.278 373.086L175.099 383.719L165.284 392.716L153.833 400.895L145.654 405.803L129.296 412.346L107.213 416.435H97.3979L91.6725 411.528L90.0367 404.167L93.3083 397.624L96.58 395.17L113.756 392.716L128.478 388.627L142.383 381.265L155.469 370.633L163.648 361.636L169.373 352.639L174.281 342.824L177.552 335.463L182.46 331.373Z" fill="#09A892"/>
<path d="M206.179 222.592H206.997L208.633 240.586L209.451 244.675H207.815L206.997 290.478H229.08L229.898 261.033L231.534 262.669V290.478L228.263 291.296V292.932H224.991L226.627 295.385L228.263 301.929L230.716 297.021H232.352L234.806 301.111L238.895 303.564L241.349 307.654L242.167 310.926L240.531 314.197L228.263 315.833L226.627 319.923L224.991 322.376H212.722L207.815 318.287L204.543 316.651L197.182 311.743L196.364 310.108V295.385L198 292.932H206.179H206.997L178.37 291.296V295.385H177.552V279.845L180.824 250.401L182.46 243.04L185.732 238.95L197.182 229.953L204.543 223.41L206.179 222.592Z" fill="#127F4E"/>
<path d="M301.874 294.568L305.963 297.839L310.871 305.2L313.325 309.29L316.596 313.379V327.284L314.96 329.738L320.686 328.92L333.772 325.648L343.587 324.83L349.312 328.92L350.13 330.555V339.552L347.677 342.006L345.223 341.188V339.552L340.315 337.917H328.047L324.775 341.188L319.05 342.006L315.778 340.37V348.549L320.686 346.914H327.229L328.047 345.278L329.683 346.914L331.318 342.006L337.044 342.824L338.68 344.46L337.862 348.549L341.951 347.731L346.859 346.914L349.312 354.275V361.636L347.677 365.725L345.223 366.543L292.877 365.725L286.334 360.818L284.698 354.275L281.426 351.003H283.88L285.516 349.367L292.877 350.185L296.967 352.639L300.238 351.821L301.874 349.367V344.46H300.238V341.188H285.516L279.791 339.552L280.608 337.099H282.244L283.062 333.827L288.787 330.555L290.423 329.738V320.741L294.513 303.565L297.784 298.657L301.874 294.568Z" fill="#09A791"/>
<path d="M332.136 258.58H380.393L389.39 270.03L393.479 278.209V283.935L391.843 285.571L381.211 286.388L374.667 284.753H332.954L328.865 280.663L324.775 272.484L320.686 271.666V298.657L319.05 308.472L314.96 307.654L313.325 304.382V269.212L314.142 268.395H319.05L319.868 269.212H323.957L324.775 260.216L325.593 259.398L332.136 258.58Z" fill="#9A1E2C"/>
<path d="M337.044 286.389H373.032L377.939 288.024L380.393 291.296L381.211 293.75L382.846 294.568V292.932L391.025 293.75L395.933 296.203L404.112 297.021L413.109 295.386L415.563 296.203L414.745 301.111L413.109 307.654L412.291 310.108L425.377 314.197L428.649 315.833L427.831 323.194L422.106 329.738L418.016 333.009H415.563L411.473 335.463L404.93 332.191V328.102L409.837 322.376L406.566 320.741L404.112 315.015H401.658V319.105L399.205 321.558H392.661L385.3 320.741L378.757 321.558L377.939 318.287L388.572 314.197L389.39 312.562L385.3 311.744L382.029 310.108L380.393 305.2V301.929L375.485 303.565L351.766 304.383L345.223 305.2L337.044 303.565L335.408 301.111L334.59 292.114L337.044 286.389Z" fill="#09A791"/>
<path d="M249.528 203.78H272.429L273.247 204.598V253.672L269.976 256.944L260.161 264.305L255.253 267.577H248.71L242.167 264.305V210.323L242.985 205.416L249.528 203.78Z" fill="#FDDB35"/>
<path d="M317.414 213.595L325.593 216.049L335.408 219.32L357.491 220.138L360.763 224.228L370.578 244.675L377.121 254.49L379.575 258.58L377.121 259.398H332.136L325.593 260.216L324.775 269.213L323.957 270.03H319.868V266.759L321.504 265.941L322.322 245.493V238.132L320.686 232.407V225.864L319.05 221.774H316.596V223.41L312.507 224.228V220.956L317.414 213.595ZM326.411 232.407L325.593 246.311H367.306L365.67 241.404L361.581 233.225L360.763 232.407H326.411Z" fill="#16252F"/>
<path d="M365.67 383.719L372.214 384.537L374.667 389.445L391.025 392.716L394.297 395.17V408.256L389.39 414.8L381.211 421.343L377.939 425.432L376.303 428.704L374.667 436.065L371.396 442.608L368.124 448.334L364.853 449.152L355.038 448.334L347.677 443.426L341.951 440.155L341.133 437.701V428.704L344.405 422.161L348.494 418.889L357.491 416.435H361.581L362.399 417.253H380.393L384.482 413.164L386.118 408.256V403.349L382.846 400.077L368.942 398.442H364.035H361.581L362.399 391.08L364.853 386.991L365.67 383.719Z" fill="#981F2C"/>
<path d="M319.05 366.543H330.501L337.862 367.361L340.315 369.815L339.498 374.722L333.772 382.901L326.411 391.08L322.322 395.988L310.871 401.713L302.692 400.077L290.423 395.17L291.241 388.627L292.059 384.537V377.176L289.605 372.269V370.633L296.149 368.179L308.417 367.361L319.05 366.543Z" fill="#9A1E2C"/>
<path d="M336.226 436.065L339.498 437.701L340.315 445.062L346.041 443.426L350.948 444.244L354.22 447.516L355.038 452.423L346.859 459.784L339.498 464.692L335.408 466.327L323.957 476.142L320.686 478.596H314.96V476.96L311.689 476.142L310.871 472.053L311.689 469.599H310.053L309.235 467.963V456.513L313.325 448.334L316.596 445.062L318.232 444.244L328.047 443.426L332.136 440.972L336.226 436.065Z" fill="#167D4D"/>
<path d="M229.898 261.034L231.534 262.669V290.478L228.263 291.296V292.932H224.991L226.627 295.386L228.263 301.929L230.716 297.021H232.352L234.806 301.111L238.895 303.565L241.349 307.654L242.167 310.926L240.531 314.197L228.263 315.833L226.627 319.923L224.991 322.376H212.722L207.815 318.287L204.543 316.651L197.182 311.744L196.364 310.108V295.386L198 292.932H206.179H206.997V291.296L209.451 290.478H229.08L229.898 261.034Z" fill="#147F4D"/>
<path d="M343.587 373.086H347.677L353.402 377.994H363.217L364.035 382.083L361.581 394.352L360.763 409.074L359.127 413.164L355.856 414.799L349.312 413.982L346.041 412.346L347.677 409.074L345.223 410.71H339.498L336.226 405.802H333.772L325.593 395.988L326.411 391.898L335.408 382.901L341.951 374.722L343.587 373.086Z" fill="#09A891"/>
<path d="M178.37 291.296H195.546L206.997 292.114L208.633 292.932V315.833H207.815V293.75H198L197.182 295.386V310.108L200.454 313.379L206.997 317.469L211.087 319.923V321.559L224.991 322.376L226.627 319.105L228.263 315.015L233.17 314.197H240.531V310.926H242.167L238.077 303.565L233.17 300.293L232.352 297.021H230.716L229.898 300.293H229.08V294.568L229.898 293.75H251.982L253.618 297.021L252.8 310.926L251.164 314.197L256.889 315.015V315.833L247.892 317.469L229.898 323.194L217.63 324.83H211.904L205.361 322.376L191.457 312.562L183.278 306.836L178.37 298.657V291.296Z" fill="#127F4E"/>
<path d="M894.855 190.694L903.034 191.512L908.759 194.783L912.031 198.873L912.848 201.327V212.777L909.577 217.685L905.487 220.956L901.398 222.592H891.583L884.222 219.32L880.132 214.413L878.496 209.506V202.962L880.95 197.237L886.676 192.33L894.855 190.694Z" fill="#15262F"/>
<path d="M598.773 371.45H630.671L632.307 373.086L636.397 383.719L644.576 403.349L655.209 428.704L667.477 458.148L680.564 490.047L685.471 501.497V502.315H653.573L648.665 491.682L643.758 476.96H586.505L579.143 496.59L576.69 502.315H546.427L547.245 498.226L555.424 477.778L564.421 454.877L573.418 432.793L581.597 411.528L593.048 383.719L597.137 372.268L598.773 371.45ZM613.495 401.713L610.224 409.074L600.409 436.065L594.684 451.605V454.059H634.761L632.307 445.88L620.039 414.799L615.131 402.531L613.495 401.713Z" fill="#15242E"/>
<path d="M547.245 201.326L579.961 202.144L591.412 231.589L597.955 247.947L605.316 267.577L616.767 297.839L619.221 302.747L629.854 271.666L634.761 259.398L641.304 239.768L648.665 220.138L654.391 202.962L655.209 202.144H685.471L683.017 210.323L669.931 243.858L660.934 267.577L648.665 300.293L636.397 332.191L635.579 333.009H600.409L596.319 323.194L588.14 302.747L581.597 287.206L573.418 267.577L550.517 210.323L547.245 202.962V201.326Z" fill="#15242E"/>
<path d="M725.548 232.407H735.363L746.814 234.043L757.447 238.132L767.261 245.493L773.805 254.49L777.894 264.305L779.53 275.756V290.478L778.712 291.296H709.19L710.826 299.475L714.098 306.018L719.823 310.926L726.366 313.379L731.274 314.197H737.817L748.45 310.926L754.993 306.836L758.265 303.564L762.354 305.2L772.169 313.379L776.258 316.651L774.623 319.923L767.261 326.466L757.447 332.191L743.542 336.281L736.181 337.099H725.548L716.551 335.463L703.465 330.555L695.286 324.83L689.561 319.105L684.653 310.926L680.564 300.293L678.928 292.932V274.938L682.199 262.669L687.107 252.854L694.468 244.675L701.011 239.768L709.19 235.678L719.005 233.225L725.548 232.407ZM725.548 252.854L717.369 256.126L712.462 262.669L709.19 270.848V273.302H750.085L750.903 271.666L748.45 263.487L745.178 258.58L741.089 255.308L734.545 252.854H725.548Z" fill="#15242E"/>
<path d="M1046.98 404.167H1067.43L1076.43 406.621L1082.97 409.892L1090.33 415.618L1096.06 424.614L1098.51 432.794L1099.33 443.426L1100.15 484.321L1111.6 485.139L1112.42 485.957V501.497L1108.33 503.951L1105.06 504.769L1091.15 505.587L1083.79 503.951L1078.88 500.68L1075.61 496.59L1073.16 492.501L1066.61 497.408L1062.52 500.68L1055.16 503.951L1045.35 505.587H1037.17L1027.36 503.951L1018.36 499.044L1012.63 493.318L1008.54 484.321L1007.73 480.232V473.689L1011 463.056L1014.27 458.149L1019.18 454.059L1028.99 449.152L1043.71 445.88L1069.89 444.244V438.519L1066.61 430.34L1062.52 427.068L1057.62 425.432H1049.44L1041.26 427.886L1028.17 435.247L1024.08 438.519L1020.81 434.429L1011 421.343L1015.09 417.253L1028.99 409.074L1042.08 404.985L1046.98 404.167ZM1048.62 461.42L1040.44 465.51L1037.99 467.963L1036.35 475.325L1039.62 481.868L1046.17 485.139H1056.8L1063.34 481.868L1069.07 475.325L1071.52 467.963L1070.7 462.238L1069.89 461.42H1048.62Z" fill="#15242E"/>
<path d="M1004.45 234.861H1033.9L1050.26 274.12L1060.07 299.475L1061.71 301.111L1070.7 268.395L1080.52 235.679L1081.34 234.861H1109.15L1109.96 236.496L1102.6 256.126L1088.7 293.75L1079.7 318.287L1068.25 348.549L1061.71 360.818L1054.35 368.179L1047.8 371.451L1042.9 373.086L1037.17 373.904H1022.45L1014.27 372.269L1013.45 369.815L1016.72 349.367L1028.17 350.185L1036.35 347.731L1040.44 343.642L1043.71 337.099L1044.53 331.373L1040.44 319.923L1033.9 306.018L1021.63 279.027L1007.73 247.947L1003.64 237.314L1004.45 234.861Z" fill="#15242E"/>
<path d="M973.373 193.965H981.552L993.821 195.601L997.91 197.237L998.728 201.327L996.275 218.503L988.096 216.867H977.463L973.373 219.32L971.737 223.41L970.92 234.861H995.457L996.275 256.126L995.457 256.944H970.92V332.191L970.102 333.009H942.293L941.475 332.191L940.657 256.944L925.117 256.126V234.861H939.839L940.657 221.774L943.111 211.959L948.018 203.78L954.561 198.873L962.741 195.601L973.373 193.965Z" fill="#15242E"/>
<path d="M944.747 403.349H966.012L976.645 405.803L984.824 409.892L993.003 416.435L998.728 422.979L997.093 426.25L984.006 436.883L980.734 439.337L977.463 438.519L972.555 431.976L968.466 428.704L961.923 426.25H950.472L942.293 430.34L937.386 436.065L934.932 441.79L933.296 449.969V458.148L935.75 468.781L940.657 476.142L947.2 480.232L951.29 481.868H961.923L971.738 477.778L975.009 476.142V474.507L977.463 472.053L979.099 469.599L983.188 471.235L995.457 477.778L1000.36 481.05L999.546 484.321L990.549 494.136L982.37 499.862L974.191 503.133L961.105 505.587H950.472L938.203 503.951L925.117 498.226L916.938 491.683L912.031 485.957L907.941 479.414L904.669 471.235L903.034 462.238V446.698L906.305 431.976L910.395 424.614L917.756 416.435L923.481 411.528L936.568 404.985L944.747 403.349Z" fill="#15242E"/>
<path d="M726.366 366.543H749.268L758.264 368.179V376.358L755.811 389.445L753.357 390.262L746.814 388.627H736.181L732.909 391.898L731.274 395.988V405.803L755.811 406.621V427.886H730.456V502.315H702.647L701.829 498.226V427.068L698.557 427.886H686.289L685.471 427.068V406.621L700.193 405.803L701.829 386.991L705.101 379.63L710.826 373.086L720.641 368.179L726.366 366.543Z" fill="#15242E"/>
<path d="M852.324 232.407H863.774L864.592 233.225V243.857L862.956 261.033H844.962L836.783 263.487L830.24 269.212L826.968 277.392L826.151 333.009H798.342L797.524 269.212L796.706 235.678H822.061L823.697 247.947V250.401L835.148 238.95L840.873 235.678L847.416 233.225L852.324 232.407Z" fill="#15242E"/>
<path d="M823.697 403.349H839.237L840.055 404.985L838.419 431.158H819.607L812.246 433.611L807.339 437.701L804.885 441.79L804.067 445.062L803.249 491.683L802.431 501.497L801.613 502.315H773.805V406.62H797.524L798.342 407.438L799.978 422.979L805.703 415.617L812.246 409.892L819.607 404.985L823.697 403.349Z" fill="#15242E"/>
<path d="M881.768 234.861H908.759L909.577 235.679L910.395 332.191L909.577 333.009H881.768L880.95 332.191V235.679L881.768 234.861Z" fill="#15242E"/>
<path d="M855.595 406.62H883.404L884.222 407.438V502.315H855.595L854.777 425.432V407.438L855.595 406.62Z" fill="#15242E"/>
<path d="M865.41 364.907H874.407L881.768 368.179L885.858 373.087L887.493 378.812L886.675 385.355L883.404 391.08L879.314 394.352L875.225 395.988L868.682 396.806L861.32 395.17L854.777 389.445L852.323 382.901L853.141 374.722L856.413 369.815L860.503 366.543L865.41 364.907Z" fill="#15242E"/>
<path d="M276.519 254.49L280.608 255.308L285.516 257.762L286.334 261.033V267.577L288.787 268.395L289.605 262.669L290.423 261.033L295.331 261.851L303.51 265.941L302.692 271.666L298.602 283.117L296.149 293.75L293.695 295.385L276.519 288.024V283.117L279.791 279.845L280.608 276.574L273.247 275.756L265.886 270.848L260.161 270.03L261.797 266.759L274.883 256.126L276.519 254.49Z" fill="#FDDB35"/>
<path d="M207.815 242.222L209.451 244.675L211.087 249.583L229.08 259.398L229.898 261.034V288.842L229.08 290.478H206.997V244.675L207.815 242.222Z" fill="#FDDB35"/>
<path d="M393.479 280.663H394.297L397.569 291.296H406.566L418.834 289.66L431.103 290.478L431.921 291.296L431.103 304.382L428.649 315.833L425.377 315.015L412.291 310.926L411.473 309.29L413.109 306.018L415.563 296.203L407.384 297.021L401.658 297.839L394.297 296.203L391.025 294.568L382.846 292.932V294.568L380.393 293.75L377.939 288.842L373.032 287.206H337.044L335.408 288.842L333.772 285.571L334.59 283.935H374.667L383.664 285.571L391.843 284.753L393.479 280.663Z" fill="#2B4B3E"/>
<path d="M293.695 410.71H300.238L306.781 413.164L310.053 414.799V416.435L306.781 418.071L309.235 421.343L312.507 420.525L314.143 416.435L317.414 417.253L321.504 421.343L325.593 426.25L328.865 433.611V438.519L324.775 442.608L320.686 440.972L319.05 437.701L315.778 438.519L312.507 440.972L310.871 445.062H305.963L303.51 443.426L302.692 437.701L301.874 436.883V431.158L303.51 427.068L296.149 425.432L292.059 420.525L291.241 414.799L293.695 410.71Z" fill="#12804F"/>
<path d="M305.146 269.213H310.871L314.142 270.031V304.383L315.778 307.654L319.05 308.472L319.868 298.657L320.686 271.666H324.775L327.229 274.938L329.683 280.663L334.59 285.571L335.408 289.66L333.772 291.296L328.865 287.207H327.229L325.593 293.75V314.197H323.957V317.469L319.05 319.923L317.414 315.833L316.596 310.108L313.325 308.472L309.235 301.929L306.781 297.839V296.203L303.51 294.568L298.602 295.386L299.42 286.389L304.328 270.031L305.146 269.213Z" fill="#2E433A"/>
<path d="M387.754 331.373L401.658 332.191L407.384 337.099V338.734H409.019L408.201 343.642L405.748 346.096H404.112L402.476 349.367L391.843 359.182L389.39 363.272L390.208 371.451L393.479 388.627V395.17L387.754 392.716L384.482 391.08L390.208 389.444L389.39 384.537L385.3 382.083V380.448L381.211 378.812L377.121 373.904L381.211 370.633L382.846 354.275L386.118 347.731L387.754 337.917V331.373Z" fill="#2B3533"/>
<path d="M380.393 300.293L384.482 308.472L394.297 310.926L407.384 309.29L412.291 305.2L413.927 303.565L413.109 307.654L412.291 310.108L425.377 314.197L428.649 315.833L427.831 323.194L422.106 329.738L418.016 333.009H415.563L411.473 335.463L404.93 332.191V328.102L409.837 322.376L406.566 320.741L404.112 315.015H401.658V319.105L399.205 321.558H392.661L385.3 320.741L378.757 321.558L377.939 318.287L388.572 314.197L389.39 312.562L385.3 311.744L382.029 310.108L379.575 301.111L380.393 300.293Z" fill="#137F4E"/>
<path d="M324.775 393.534L327.229 396.806L334.59 405.802H337.044L339.498 409.892H345.223L348.494 408.256L347.677 411.528L346.859 412.346L351.766 413.982L358.309 413.164L359.945 409.074L360.763 394.352H361.581L362.399 398.441L364.035 397.623L376.303 398.441L384.482 400.077L386.936 403.349L386.118 411.528L382.846 416.435L380.393 418.071H362.399L361.581 417.253H350.13L340.315 416.435L336.226 413.982L330.501 404.985L324.775 397.623V393.534Z" fill="#19814D"/>
<path d="M297.784 263.487L302.692 264.305L305.963 267.577L303.51 274.938L299.42 290.478V294.568L303.51 293.75L307.599 297.839L310.871 303.564L310.053 305.2L303.51 296.203L300.238 295.385L298.602 298.657L295.331 303.564L291.241 320.74V329.737L283.062 334.645L282.244 337.099L279.791 339.552L285.516 340.37L300.238 341.188V344.46H301.874L302.692 349.367L299.42 353.457L296.149 352.639L291.241 351.003L285.516 350.185L283.062 352.639L285.516 355.092L287.152 360.818L292.877 364.907L315.778 365.725V366.543L307.599 367.361L305.146 368.179L296.149 368.997L288.787 370.633L280.608 358.364L276.519 354.275V338.734L277.337 334.645L281.426 333.009L287.152 328.92L293.695 302.747L296.149 297.839L287.152 293.75L283.88 292.114L286.334 291.296L294.513 294.568L296.967 287.206L299.42 277.392L303.51 265.941L297.784 264.305V263.487Z" fill="#1C844F"/>
<path d="M355.856 448.333H367.306L364.853 455.695L359.127 464.692L352.584 472.053L346.041 477.778L337.862 484.321L331.318 486.775H317.414L314.96 484.321L315.778 481.868L323.139 480.232H328.047L329.683 475.324L332.136 474.506V472.053L337.862 468.781L343.587 467.963L344.405 465.509H346.041L347.677 461.42L354.22 455.695L355.856 452.423V448.333Z" fill="#2B3733"/>
<path d="M401.658 314.197L404.93 315.015L408.201 321.558L409.837 322.376L408.201 325.648L405.748 328.102L404.93 332.191L409.019 333.827L411.473 334.645L415.563 332.191H418.016L416.381 335.463L409.837 341.188L409.019 338.734H407.384L401.658 333.009L388.572 332.191V339.552L386.936 347.731L383.664 354.275L382.846 352.639L385.3 346.096L386.118 339.552L384.482 333.827L378.757 330.555H371.396L359.945 333.827L353.402 336.281V331.373L368.124 326.466L371.396 322.376L374.667 319.105V323.194L399.205 320.74L400.84 317.469L401.658 314.197Z" fill="#2E3533"/>
<path d="M274.065 248.765L275.701 252.037L282.244 253.672L292.059 259.398L294.513 261.034H290.423L288.787 268.395L285.516 267.577V260.216L284.698 257.762L278.973 255.308L275.701 256.126L269.158 261.851L260.979 268.395L260.161 270.031H265.886L273.247 274.938L280.608 276.574L279.79 280.663L275.701 281.481L274.883 283.935L274.065 279.027L266.704 277.392L272.429 279.845L273.247 280.663V285.571L270.794 288.024L260.979 291.296H256.889V272.484L256.071 290.478H255.253L254.435 270.848L249.528 270.031L247.892 269.213V267.577L246.256 266.759H255.253L264.25 260.216L269.976 256.126H271.611L272.429 253.672H274.065V248.765Z" fill="#723B36"/>
<path d="M327.229 286.389L330.501 287.207L333.772 290.478L335.408 289.66V300.293L334.59 298.657H332.954L332.136 309.29V315.015V315.833H332.954V319.923L335.408 319.105L338.68 322.376L343.587 324.012V324.83L322.322 328.92L317.414 330.555L314.96 329.738L315.778 327.284V313.379L310.871 307.654L311.689 305.2L314.96 309.29L317.414 311.744L319.05 319.105L323.139 316.651L324.775 311.744V293.75L326.411 287.207L327.229 286.389Z" fill="#137F4E"/>
<path d="M328.865 409.074L332.954 410.71L335.408 415.617L341.133 418.071H348.494V419.707L344.405 423.796L341.951 428.704L341.133 435.247L339.498 433.611L335.408 434.429L333.772 436.883H330.501L327.229 427.886V423.796L323.957 422.161L321.504 418.889V417.253L319.05 416.435L319.868 412.346L322.322 410.71L328.865 409.074Z" fill="#2C3533"/>
<path d="M178.37 291.296H195.546L206.997 292.114L208.633 292.932V315.833H207.815V293.75H198L197.182 295.386V310.108L202.09 315.015L196.364 315.833L184.096 307.654L178.37 298.657V291.296Z" fill="#97202C"/>
<path d="M271.611 296.203L277.337 297.021L282.244 300.293L284.698 304.382L283.88 310.926L278.973 316.651L274.065 318.287V316.651L267.522 313.379L271.611 317.469L267.522 316.651L263.432 312.561L262.615 306.018L265.068 301.111L271.611 296.203Z" fill="#12AB96"/>
<path d="M419.652 290.478H431.103L431.921 291.296L431.103 304.382L429.467 313.379L422.106 312.561L417.198 310.108L416.381 309.29L417.198 303.564L418.834 297.021L419.652 290.478Z" fill="#97202D"/>
<path d="M354.22 447.516L356.674 449.151L355.856 454.877L351.766 458.966H350.13L349.312 461.42H347.677L346.041 465.51L343.587 467.963L335.408 470.417L332.136 472.053V474.506L330.501 475.324L328.047 480.232L319.05 481.868H315.778L316.596 484.321L314.142 485.139L309.235 481.05L305.963 475.324V473.689H307.599L308.417 459.784H309.235L310.053 469.599H311.689L312.507 476.142L314.96 476.96V478.596L322.322 476.96L332.136 467.963L336.226 464.692L341.951 462.238L349.312 456.513L354.22 452.423V447.516Z" fill="#37423A"/>
<path d="M206.179 222.592H206.997L208.633 238.132L207.815 241.404L206.179 242.222L184.096 243.04L184.914 239.768L198.818 228.317L206.179 222.592Z" fill="#16252F"/>
<path d="M392.661 333.009H402.476L407.384 337.099V338.734H409.019L408.201 343.642L405.748 346.096H404.112L402.476 349.367L391.843 359.182L390.208 361.636L386.936 360.818L385.3 360V355.092L391.025 351.003H392.661L393.479 347.731H395.115V346.096L398.387 345.278V343.642L400.022 342.824L401.658 338.734L392.661 334.645V333.009Z" fill="#15272F"/>
<path d="M316.596 436.883L319.05 437.701L323.139 441.79L328.865 440.155L329.683 438.519L331.318 439.337L330.501 443.426L328.047 444.244L318.232 445.062L314.96 445.88L313.325 449.97L310.053 456.513L308.417 469.599L307.599 473.689H305.963L304.328 456.513L301.874 448.334V445.88H310.053L312.507 440.155L316.596 436.883Z" fill="#2B3835"/>
<path d="M240.531 313.38L247.074 314.197L247.892 317.469L229.898 323.194L217.63 324.83H211.904L205.361 322.376L197.182 316.651L198.818 315.015L204.543 315.833L208.633 318.287L211.087 319.923V321.559L224.991 322.376L226.627 319.105L228.263 315.015L240.531 313.38Z" fill="#293D36"/>
<path d="M257.707 271.666H260.161L262.615 275.756L272.429 279.845L273.247 280.663V285.571L270.794 288.024L260.979 291.296H256.889V273.302L257.707 271.666Z" fill="#FDDB35"/>
<path d="M232.352 262.669L239.713 265.123L249.528 269.213L255.253 270.031V283.935L254.435 291.296L253.618 292.114H245.439L249.528 284.753V274.938H247.892V273.302L242.985 271.666V270.031L237.259 268.395L230.716 266.759V263.487L232.352 262.669Z" fill="#2B3433"/>
<path d="M290.423 395.17L299.42 397.623L305.146 400.077L310.871 400.895L323.139 395.17L322.322 398.441L317.414 402.531H315.778L314.143 405.802L312.507 406.62H306.781L301.056 402.531H292.877L292.059 410.71L287.97 411.528V405.802L290.423 395.17Z" fill="#2B3633"/>
<path d="M297.784 263.487L302.692 264.305L305.963 267.577L303.51 274.938L299.42 290.478V294.568L303.51 293.75L307.599 297.839L310.871 303.564L310.053 305.2L303.51 296.203L300.238 295.385L298.602 298.657L295.331 303.564L291.241 320.74V329.737L285.516 333.009L283.88 332.191L287.152 328.92L293.695 302.747L296.149 297.839L287.152 293.75L283.88 292.114L286.334 291.296L294.513 294.568L296.966 287.206L299.42 277.392L303.51 265.941L297.784 264.305V263.487Z" fill="#177B4C"/>
<path d="M413.109 313.38L418.834 314.197L422.924 316.651L422.106 320.741L419.652 326.466L414.745 330.556L411.473 331.373L408.201 329.738L409.837 325.648L411.473 324.012H414.745V322.376L409.837 321.559L408.201 319.923V315.833L409.837 314.197L413.109 313.38Z" fill="#09A892"/>
<path d="M307.599 273.302L310.871 274.12V275.756L313.325 274.938V292.932L311.689 292.114L305.963 292.932L303.51 288.842V278.209L305.963 274.12L307.599 273.302Z" fill="#137F4E"/>
<path d="M314.96 270.848L318.232 271.666L319.05 272.484V305.2H315.778L314.143 293.75V273.302L314.96 270.848Z" fill="#137F4E"/>
<path d="M349.312 364.907H350.948L350.13 370.633L344.405 372.269L335.408 383.719L326.411 392.716V390.263L334.59 381.266L339.498 373.087V368.179L330.501 367.361H319.05L308.417 368.179L307.599 366.543L315.778 365.725H345.223L349.312 364.907Z" fill="#2C4A3C"/>
<path d="M338.68 292.114H350.948L355.038 293.75L358.309 297.021V298.657L354.22 300.293H340.315L337.044 297.839V293.75L338.68 292.114Z" fill="#FDFDFD"/>
<path d="M328.047 337.099L333.772 337.916L340.315 338.734L344.405 341.188V345.278L341.133 346.095L337.044 342.006L335.408 341.188H330.501L328.047 345.278L327.229 346.913L319.05 348.549H315.778V340.37L322.322 341.188L327.229 339.552L328.047 337.099Z" fill="#137F4E"/>
<path d="M230.716 297.021H232.352L234.806 301.111L238.895 303.565L241.349 307.654L242.167 310.926L239.713 313.379H230.716L229.898 309.29V299.475L230.716 297.021Z" fill="#11A98E"/>
<path d="M274.065 248.765L275.701 252.037L282.244 253.672L292.059 259.398L294.513 261.034H290.423L288.787 268.395L285.516 267.577V260.216L284.698 257.762L278.973 255.308L275.701 256.126L269.158 261.851L264.25 265.941L262.615 265.123L267.522 260.216V257.762L271.611 256.126L272.429 253.672H274.065V248.765Z" fill="#8A2930"/>
<path d="M270.794 301.111H278.155L279.791 302.747L278.973 308.472L277.337 312.561L275.701 314.197L271.611 313.379L267.522 306.836L268.34 302.747L270.794 301.111Z" fill="#193735"/>
<path d="M289.605 217.685H298.602L304.328 226.682L310.053 227.5V229.953L308.417 231.589L301.874 230.771L301.056 228.317L298.602 227.5L297.784 224.228L289.605 221.774L288.787 218.503L289.605 217.685Z" fill="#15262F"/>
<path d="M374.667 376.358L378.757 377.176V378.812H380.393V380.447L385.3 381.265L387.754 383.719V389.444H378.757L376.303 386.991L374.667 376.358Z" fill="#09A892"/>
<path d="M389.39 371.45H390.208L393.479 388.626V395.17L387.754 392.716L384.482 391.08L390.208 389.444L389.39 384.537L385.3 382.083V380.447L381.211 378.812L380.393 377.176L383.664 376.358L384.482 374.722L389.39 373.904V371.45Z" fill="#294F40"/>
<path d="M395.115 323.194L400.022 324.83L401.658 326.466L400.84 329.737L397.569 331.373L386.118 330.555L384.482 328.92V325.648L387.754 324.83L392.661 324.012L395.115 323.194Z" fill="#9B1E2C"/>
<path d="M347.677 470.417H349.312L350.13 473.689L343.587 480.232L337.862 484.321H332.954L333.772 481.05L337.862 476.96L341.133 472.871L347.677 470.417Z" fill="#162830"/>
<path d="M400.022 324.83L407.384 325.648L405.748 328.102L404.93 332.191L409.019 333.827L411.473 334.645L415.563 332.191H418.016L416.381 335.463L409.837 341.188L409.019 338.734H407.384L401.658 333.009L391.843 332.191V331.373L399.205 329.737L400.84 328.919L400.022 324.83Z" fill="#2B413A"/>
<path d="M262.615 270.03L267.522 270.848L273.247 274.938L280.608 276.574L279.791 280.663L275.701 281.481L274.883 283.935L274.065 279.027L265.068 276.574L260.979 274.938L261.797 270.848L262.615 270.03Z" fill="#803032"/>
<path d="M327.229 430.34H328.865L330.501 433.611V436.883H333.772L335.408 433.611L339.498 432.793L342.769 440.155L347.677 442.608L346.041 444.244L340.315 445.88L339.498 445.062L338.68 437.701H335.408L331.318 442.608L330.501 439.337L329.683 440.155L326.411 441.79L328.047 438.519V433.611L327.229 430.34Z" fill="#2E423A"/>
<path d="M198.818 315.015L204.543 315.833L208.633 318.287L211.087 319.923V321.558L224.991 322.376L225.809 319.923L226.627 321.558L225.809 324.012L211.904 324.83L205.361 322.376L197.182 316.651L198.818 315.015Z" fill="#2D4D3F"/>
<path d="M256.889 271.666L257.707 273.302L256.889 291.296L269.158 288.024L272.429 287.206V280.663L262.615 276.574L265.068 275.756L274.065 279.027L275.701 281.481L278.155 280.663L276.519 288.024L274.883 285.571L270.794 289.66L260.161 293.75H256.071L255.253 290.478L256.071 272.484L256.889 271.666Z" fill="#137F4E"/>
<path d="M366.488 292.114H375.485L376.303 292.932V297.839L374.667 299.475H364.853L364.035 296.203L366.488 292.114Z" fill="#FDFDFD"/>
<path d="M314.96 418.889L318.232 420.525L323.957 427.886L324.775 431.975L321.504 432.793L315.778 427.886L312.507 425.432L313.325 421.343L314.96 418.889Z" fill="#09A892"/>
<path d="M270.794 295.385H276.519L283.062 299.475L284.698 301.929L283.88 304.382L280.608 299.475L275.701 297.021L269.976 297.839L265.068 301.929L263.432 306.018L264.25 312.561L269.158 316.651L275.701 317.469L280.608 314.197L283.062 310.926L284.698 308.472L283.88 313.379L279.791 317.469L277.337 319.105H270.794L265.068 316.651L262.615 313.379L261.797 310.926V304.382L265.068 299.475L270.794 295.385Z" fill="#137F4E"/>
<path d="M344.405 394.352H347.677L346.859 401.713L345.223 406.62H341.133L339.498 404.985V400.077L342.769 395.17L344.405 394.352Z" fill="#157A4C"/>
<path d="M373.032 342.006L376.303 343.642L380.393 346.096L379.575 349.367L374.667 352.639L370.578 351.821L368.124 349.367L365.67 348.549L366.488 346.096L372.214 346.913L373.032 343.642V342.006Z" fill="#2D3F38"/>
<path d="M382.846 324.83L386.118 325.648H384.482L386.118 329.737L391.843 330.555L388.572 333.009V339.552L386.936 347.731L383.664 354.275L382.846 352.639L385.3 346.095L386.118 339.552L384.482 333.827L380.393 331.373L382.029 329.737L382.846 324.83Z" fill="#2F443B"/>
<path d="M333.772 337.917L340.315 338.734L344.405 341.188V345.278L341.133 346.096L337.044 342.006L335.408 341.188H330.501L328.047 345.278H324.775L325.593 342.006L329.683 338.734L333.772 337.917Z" fill="#483B37"/>
<path d="M304.328 342.824H309.235L310.871 344.46V346.913H309.235L310.871 351.003L310.053 352.639H303.51L302.692 349.367L303.51 346.913V344.46L304.328 342.824Z" fill="#FDDB35"/>
<path d="M190.639 234.861L192.275 235.679L189.003 239.768L188.185 241.404L195.546 239.768L207.815 238.95V241.404L206.179 242.222L184.096 243.04L184.914 239.768L190.639 234.861Z" fill="#263B36"/>
<path d="M274.883 284.753L275.701 288.024L279.791 288.842L283.88 290.478V292.114L279.791 291.296L278.155 290.478V292.114H280.608V293.75L272.429 292.932V294.568L268.34 293.75L267.522 292.114H269.976L270.794 288.842L274.883 284.753Z" fill="#453634"/>
<path d="M240.531 313.38L247.074 314.197L247.892 317.469L242.985 318.287L238.077 315.833L237.259 317.469L227.445 319.105L228.263 315.015L240.531 313.38Z" fill="#2D463B"/>
<path d="M260.161 200.509H268.34L273.247 202.962L272.429 204.598H249.528L242.985 205.416L243.803 203.78L260.161 200.509Z" fill="#137F4E"/>
<path d="M305.146 269.213H310.871L314.142 270.031L312.507 275.756H310.871L310.053 274.12H305.963L304.328 278.21L302.692 279.027L303.51 272.484L305.146 269.213Z" fill="#2F443B"/>
<path d="M379.575 401.713H383.664V410.71L381.211 414.799L378.757 415.617L377.121 413.982L380.393 407.438L377.939 403.349L379.575 401.713Z" fill="#FDDB35"/>
<path d="M295.331 300.293L296.149 301.929L292.877 315.015L291.241 320.741V329.738L285.516 333.009L283.88 332.191L287.152 328.92L293.695 302.747L295.331 300.293Z" fill="#137F4E"/>
<path d="M296.149 428.704L301.056 430.34V437.701L300.238 440.155H297.784L295.331 435.247L294.513 430.34L296.149 428.704Z" fill="#2A3A35"/>
<path d="M355.856 288.024H364.853L364.035 289.66H362.399L363.217 296.203L359.127 297.021L357.491 295.386L356.674 289.66L355.856 288.024Z" fill="#187149"/>
<path d="M363.217 328.102L365.67 328.92L364.853 332.191L353.402 336.281V331.373L363.217 328.102Z" fill="#2F443B"/>
<path d="M341.133 422.161L344.405 422.979L341.133 431.158L337.044 429.522L334.59 423.796L341.133 422.161Z" fill="#15222E"/>
<path d="M393.479 280.663H394.297L395.115 288.024L393.479 288.842L378.757 288.024L377.939 285.571L391.843 284.753L393.479 280.663Z" fill="#213032"/>
<path d="M229.898 261.034L231.534 262.669V290.478L228.263 291.296L229.08 288.842L229.898 261.034Z" fill="#137E4D"/>
<path d="M308.417 455.695H309.235L308.417 472.053L307.599 473.689H305.963L305.146 465.51V458.149H306.781L308.417 455.695Z" fill="#293C35"/>
<path d="M301.056 436.883L303.51 437.701L304.328 443.426L310.053 444.244V446.698H301.056L298.602 440.155H300.238L299.42 437.701L301.056 436.883Z" fill="#2C483D"/>
<path d="M371.396 405.802H374.667L376.303 408.256L375.485 413.982L373.032 414.799L371.396 413.982L369.76 409.892L367.306 407.438H371.396V405.802Z" fill="#9B1E2C"/>
<path d="M178.37 283.935H180.006L181.642 287.206V289.66L202.09 290.478L204.543 292.114L178.37 291.296V283.935Z" fill="#2F443B"/>
<path d="M400.022 324.83L407.384 325.648L405.748 328.102L404.93 332.191L406.566 333.009L391.843 332.191V331.373L399.205 329.737L400.84 328.919L400.022 324.83Z" fill="#2F443B"/>
<path d="M232.352 303.565L236.442 305.2L238.895 308.472L238.077 310.926H232.352L230.716 308.472L231.534 304.382L232.352 303.565Z" fill="#FDFDFD"/>
<path d="M339.498 452.423L341.133 453.241L343.587 455.695L342.769 458.966L341.133 460.602H337.862L336.226 457.331L335.408 454.059L339.498 452.423Z" fill="#09A892"/>
<path d="M401.658 314.197L404.93 315.015L408.201 321.558L409.837 322.376L408.201 325.648L407.384 322.376H405.748L404.93 319.105L401.658 322.376H396.751L400.84 319.105V315.015L401.658 314.197Z" fill="#2E3F38"/>
<path d="M332.954 298.657H334.59L336.226 305.2V311.744L332.136 310.108L331.318 306.018L332.954 298.657Z" fill="#2C3834"/>
<path d="M385.3 291.296H390.208L397.569 295.386L407.384 296.204L404.112 297.839L395.933 297.021L391.025 294.568L382.846 292.932V294.568L380.393 293.75V292.114L385.3 291.296Z" fill="#137F4E"/>
<path d="M285.516 364.089L289.605 364.907L292.059 366.543L305.146 367.361V368.179L296.149 368.997L288.787 370.633L285.516 365.725V364.089Z" fill="#2C4A3E"/>
<path d="M300.238 413.982L303.51 414.799V419.707L300.238 421.343L296.967 420.525L296.149 418.071L296.967 416.435H298.602V414.799L300.238 413.982Z" fill="#09A892"/>
<path d="M303.51 450.787H310.053L308.417 456.513L305.963 458.966L303.51 453.241V450.787Z" fill="#15272F"/>
<path d="M386.936 382.901L390.208 384.537L391.025 389.444L387.754 391.08H377.121L379.575 389.444H387.754L386.936 382.901Z" fill="#15794C"/>
<path d="M272.429 253.672L273.247 256.126H275.701L269.158 261.852L264.25 265.941L262.615 265.123L267.522 260.216V257.762L271.611 256.126L272.429 253.672Z" fill="#137F4E"/>
<path d="M274.065 248.765L275.701 252.037L282.244 253.672L284.698 255.308V256.944L276.519 255.308L272.429 256.944L274.065 248.765Z" fill="#862C31"/>
<path d="M206.997 238.95L207.815 241.404L206.179 242.222H194.728L195.546 239.768L206.997 238.95Z" fill="#303D37"/>
<path d="M206.997 291.296H209.451V292.932H212.722L210.269 300.293L209.451 307.654H208.633V292.932H206.997V291.296Z" fill="#35443A"/>
<path d="M391.026 386.991H392.661L393.479 388.626V395.17L387.754 392.716L384.482 391.08L390.208 389.444L391.026 386.991Z" fill="#2C493C"/>
<path d="M338.68 377.176V379.63L329.683 389.445L325.593 392.716L327.229 389.445L334.59 381.266L338.68 377.176Z" fill="#1D6947"/>
<path d="M265.068 306.836L268.34 308.472L270.794 314.197H266.704L264.25 311.744V307.654L265.068 306.836Z" fill="#FDFDFD"/>
<path d="M364.853 400.895L370.578 401.713V404.167L368.124 405.803H364.035L363.217 402.531L364.853 400.895Z" fill="#FDDB35"/>
<path d="M368.124 337.099H373.032V340.37L365.67 342.006H364.035L362.399 345.278L363.217 341.188L367.306 338.734L368.124 337.099Z" fill="#09A892"/>
<path d="M389.39 371.45H390.208L391.025 382.083L387.754 381.265L386.936 377.176L389.39 371.45Z" fill="#26473C"/>
<path d="M305.963 306.018L307.599 307.654V313.379L305.146 315.833H304.328V307.654L305.963 306.018Z" fill="#FDFDFD"/>
<path d="M318.232 468.781L321.504 469.599L323.957 472.871L321.504 474.506L318.232 473.689L317.414 469.599L318.232 468.781Z" fill="#FDDB35"/>
<path d="M403.294 319.105H404.93L405.748 322.376H407.384V324.83L400.84 324.012L400.022 322.376L403.294 319.105Z" fill="#15222E"/>
<path d="M283.88 308.472L284.698 311.744L281.426 316.651L277.337 319.105H270.794V317.469H275.701L280.608 314.197L283.062 310.926L283.88 308.472Z" fill="#128151"/>
<path d="M297.784 263.487L302.692 264.305L305.963 267.577L303.51 274.938H301.056L303.51 265.941L297.784 264.305V263.487Z" fill="#1A794C"/>
<path d="M392.661 321.558L400.022 322.376L407.384 324.83L404.93 326.466L395.115 324.012H392.661V321.558Z" fill="#393735"/>
<path d="M329.683 338.734H333.772L329.683 342.006L328.047 345.278H324.775L325.593 342.006L329.683 338.734Z" fill="#2F443B"/>
<path d="M356.674 462.238H359.127L358.309 465.509L354.22 469.599L352.584 465.509L356.674 463.874V462.238Z" fill="#152E32"/>
<path d="M295.331 345.278L299.42 346.095V350.185L296.966 351.003L294.513 348.549L295.331 345.278Z" fill="#2E4139"/>
<path d="M178.37 283.935H180.006L182.46 291.296H178.37V283.935Z" fill="#2E4139"/>
<path d="M278.155 301.929L279.791 302.747L278.973 308.472L277.337 312.561H276.519V305.2H278.155V301.929Z" fill="#205F43"/>
<path d="M285.516 261.034L287.97 263.487L290.423 261.034L288.787 268.395L285.516 267.577V261.034Z" fill="#137F4E"/>
<path d="M394.297 324.83H398.387L399.205 328.919L394.297 328.102V324.83Z" fill="#137F4E"/>
<path d="M244.621 268.395L249.528 269.212L254.435 270.848V273.302L247.074 270.848L244.621 268.395Z" fill="#15222E"/>
<path d="M306.781 264.305L311.689 265.123L313.325 265.941V268.395L306.781 267.577L305.963 265.123L306.781 264.305Z" fill="#15222E"/>
<path d="M206.179 228.317H207.815V234.861L204.543 234.043L203.725 230.771L206.179 228.317Z" fill="#2C3533"/>
<path d="M267.522 198.873H278.155L275.701 201.327L274.883 205.416L273.247 202.144V199.691H267.522V198.873Z" fill="#216144"/>
</svg>
